<svg xmlns="http://www.w3.org/2000/svg" xmlns:xlink="http://www.w3.org/1999/xlink" width="500" zoomAndPan="magnify" viewBox="0 0 375 374.999991" height="500" preserveAspectRatio="xMidYMid meet" version="1.0"><defs><clipPath id="587057256a"><path d="M 263 210 L 271.203125 210 L 271.203125 219 L 263 219 Z M 263 210 " clip-rule="nonzero"/></clipPath><clipPath id="ab94e90ae3"><path d="M 4 153 L 226 153 L 226 374.285156 L 4 374.285156 Z M 4 153 " clip-rule="nonzero"/></clipPath><clipPath id="cc67dee39a"><path d="M 252 182 L 271.203125 182 L 271.203125 199 L 252 199 Z M 252 182 " clip-rule="nonzero"/></clipPath><clipPath id="42d6e21aa6"><path d="M 161 99.234375 L 197 99.234375 L 197 187 L 161 187 Z M 161 99.234375 " clip-rule="nonzero"/></clipPath><clipPath id="2bc9debc92"><path d="M 270 234 L 271.203125 234 L 271.203125 252 L 270 252 Z M 270 234 " clip-rule="nonzero"/></clipPath><clipPath id="a4c2a4c32e"><path d="M 127 99.234375 L 145 99.234375 L 145 110 L 127 110 Z M 127 99.234375 " clip-rule="nonzero"/></clipPath><clipPath id="acbe385181"><path d="M 218 99.234375 L 271.203125 99.234375 L 271.203125 161 L 218 161 Z M 218 99.234375 " clip-rule="nonzero"/></clipPath><clipPath id="054bdb0e36"><path d="M 100 6 L 147 6 L 147 90 L 100 90 Z M 100 6 " clip-rule="nonzero"/></clipPath><clipPath id="0f85d8a30c"><path d="M 87.75 10.90625 L 144.945312 1.878906 L 157.921875 84.101562 L 100.722656 93.128906 Z M 87.75 10.90625 " clip-rule="nonzero"/></clipPath><clipPath id="99e1b281c8"><path d="M 87.75 10.90625 L 144.945312 1.878906 L 157.921875 84.101562 L 100.722656 93.128906 Z M 87.75 10.90625 " clip-rule="nonzero"/></clipPath><clipPath id="148b1397cf"><path d="M 87.75 10.90625 L 144.945312 1.878906 L 157.921875 84.101562 L 100.722656 93.128906 Z M 87.75 10.90625 " clip-rule="nonzero"/></clipPath><clipPath id="7131879874"><path d="M 169.402344 0 L 209 0 L 209 85 L 169.402344 85 Z M 169.402344 0 " clip-rule="nonzero"/></clipPath><clipPath id="7f04d34f47"><path d="M 266 54 L 341 54 L 341 105 L 266 105 Z M 266 54 " clip-rule="nonzero"/></clipPath><clipPath id="90242fb495"><path d="M 307.972656 34.875 L 340.960938 77.988281 L 294.972656 113.175781 L 261.984375 70.0625 Z M 307.972656 34.875 " clip-rule="nonzero"/></clipPath><clipPath id="db0e69a752"><path d="M 307.972656 34.875 L 340.960938 77.988281 L 294.972656 113.175781 L 261.984375 70.0625 Z M 307.972656 34.875 " clip-rule="nonzero"/></clipPath><clipPath id="046309edc0"><path d="M 307.972656 34.875 L 340.960938 77.988281 L 294.972656 113.175781 L 261.984375 70.0625 Z M 307.972656 34.875 " clip-rule="nonzero"/></clipPath><clipPath id="7979530a70"><path d="M 307.972656 34.878906 L 340.957031 77.992188 L 294.976562 113.171875 L 261.992188 70.058594 Z M 307.972656 34.878906 " clip-rule="nonzero"/></clipPath><clipPath id="5a38172e8b"><path d="M 283 152 L 371.609375 152 L 371.609375 201 L 283 201 Z M 283 152 " clip-rule="nonzero"/></clipPath><clipPath id="2e613b8470"><path d="M 292 220 L 348 220 L 348 276 L 292 276 Z M 292 220 " clip-rule="nonzero"/></clipPath><clipPath id="980ce7c094"><path d="M 354.050781 227.882812 L 344.175781 281.265625 L 267.664062 267.113281 L 277.539062 213.730469 Z M 354.050781 227.882812 " clip-rule="nonzero"/></clipPath><clipPath id="02f8870f9e"><path d="M 354.050781 227.882812 L 344.175781 281.265625 L 267.664062 267.113281 L 277.539062 213.730469 Z M 354.050781 227.882812 " clip-rule="nonzero"/></clipPath><clipPath id="f0755ec131"><path d="M 354.050781 227.882812 L 344.175781 281.265625 L 267.664062 267.113281 L 277.539062 213.730469 Z M 354.050781 227.882812 " clip-rule="nonzero"/></clipPath><clipPath id="d329de8a27"><path d="M 271 246 L 311 246 L 311 273 L 271 273 Z M 271 246 " clip-rule="nonzero"/></clipPath><clipPath id="a151519b86"><path d="M 354.050781 227.882812 L 344.175781 281.265625 L 267.664062 267.113281 L 277.539062 213.730469 Z M 354.050781 227.882812 " clip-rule="nonzero"/></clipPath><clipPath id="e49abb7d39"><path d="M 354.050781 227.882812 L 344.175781 281.265625 L 267.664062 267.113281 L 277.539062 213.730469 Z M 354.050781 227.882812 " clip-rule="nonzero"/></clipPath><clipPath id="eef41646ab"><path d="M 354.050781 227.882812 L 344.175781 281.265625 L 267.664062 267.113281 L 277.539062 213.730469 Z M 354.050781 227.882812 " clip-rule="nonzero"/></clipPath></defs><g clip-path="url(#587057256a)"><path fill="#000000" d="M 263.304688 210.6875 L 271.480469 210.6875 L 271.480469 218.851562 L 263.304688 218.851562 Z M 263.304688 210.6875 " fill-opacity="1" fill-rule="nonzero"/></g><g clip-path="url(#ab94e90ae3)"><path fill="#000000" d="M 206.175781 258.789062 C 216.039062 275.234375 217.660156 285.589844 214.996094 288.253906 C 214.808594 288.441406 214.558594 288.613281 214.25 288.769531 L 213.417969 289.082031 C 210.085938 290.023438 202.421875 289.046875 188.523438 281.207031 C 173.078125 272.496094 155.105469 258.242188 137.914062 241.070312 C 120.71875 223.898438 106.449219 205.949219 97.726562 190.523438 C 90.800781 178.277344 89.226562 170.878906 89.59375 167.023438 L 90.722656 164.039062 C 92.851562 162.039062 101.332031 161.664062 119.96875 172.773438 L 124.730469 164.800781 C 105.097656 153.097656 91.046875 150.582031 84.097656 157.523438 C 82.128906 159.488281 80.910156 161.980469 80.429688 164.984375 L 4.429688 366.007812 C 3.503906 368.449219 4.101562 371.214844 5.945312 373.058594 C 7.214844 374.324219 8.921875 375.003906 10.65625 375.003906 C 11.445312 375.003906 12.238281 374.863281 13.003906 374.574219 L 214.132812 298.734375 L 216.601562 297.804688 C 216.972656 297.683594 217.335938 297.542969 217.691406 297.390625 L 219.460938 296.722656 L 219.390625 296.535156 C 220.171875 296.050781 220.902344 295.480469 221.566406 294.816406 C 228.542969 287.847656 225.976562 273.742188 214.148438 254.019531 Z M 196.660156 295.402344 L 71.746094 342.503906 C 53.617188 340.289062 38.820312 333.75 28.757812 327.933594 L 40.117188 297.890625 C 53.351562 305.804688 75.109375 315.523438 102.117188 315.523438 C 125.113281 315.523438 151.914062 308.476562 180.5 287.277344 C 186.195312 290.695312 191.636719 293.460938 196.660156 295.402344 Z M 43.457031 289.058594 L 54.457031 259.960938 C 63.84375 266.457031 79.101562 274.109375 98.894531 274.109375 C 112.363281 274.109375 127.9375 270.550781 145.171875 260.679688 C 154.140625 268.664062 163.304688 275.917969 172.097656 281.898438 C 114.3125 322.878906 65.027344 302.375 43.457031 289.058594 Z M 137.964844 254.0625 C 99.324219 274.839844 70.707031 260.488281 57.855469 250.972656 L 66.90625 227.027344 C 73.230469 231.25 82.144531 235.191406 93.410156 235.191406 C 99.945312 235.191406 107.273438 233.859375 115.335938 230.488281 C 120.3125 236.222656 125.671875 241.972656 131.339844 247.632812 C 133.519531 249.808594 135.730469 251.953125 137.964844 254.0625 Z M 89.632812 195.089844 C 94.574219 203.824219 101.1875 213.296875 109.027344 222.96875 C 90.953125 229.441406 77.808594 223.613281 70.296875 218.058594 L 83.625 182.816406 C 85.132812 186.574219 87.132812 190.664062 89.632812 195.089844 Z M 25.433594 336.726562 C 33.132812 341.050781 43.195312 345.640625 55.144531 348.761719 L 15.183594 363.832031 Z M 25.433594 336.726562 " fill-opacity="1" fill-rule="nonzero"/></g><g clip-path="url(#cc67dee39a)"><path fill="#000000" d="M 252.660156 184.296875 L 254.238281 193.445312 C 274.359375 189.984375 294.964844 191.566406 313.835938 198.015625 L 316.847656 189.234375 C 296.507812 182.28125 274.3125 180.574219 252.660156 184.296875 Z M 252.660156 184.296875 " fill-opacity="1" fill-rule="nonzero"/></g><path fill="#000000" d="M 167.304688 233.886719 L 173.875 240.449219 L 184.660156 229.679688 C 200.066406 214.289062 219.121094 202.929688 239.757812 196.820312 L 237.117188 187.921875 C 215 194.46875 194.585938 206.636719 178.085938 223.117188 Z M 167.304688 233.886719 " fill-opacity="1" fill-rule="nonzero"/><g clip-path="url(#42d6e21aa6)"><path fill="#000000" d="M 195.886719 88.007812 L 186.664062 89.15625 C 190.65625 121.054688 181.453125 154.503906 161.410156 180.9375 L 168.820312 186.539062 C 190.3125 158.195312 200.175781 122.28125 195.886719 88.007812 Z M 195.886719 88.007812 " fill-opacity="1" fill-rule="nonzero"/></g><path fill="#000000" d="M 149.507812 194.574219 L 138.726562 205.347656 L 145.296875 211.910156 L 156.082031 201.136719 C 157.613281 199.609375 159.128906 198.023438 160.589844 196.421875 L 153.722656 190.167969 C 152.359375 191.664062 150.941406 193.144531 149.507812 194.574219 Z M 149.507812 194.574219 " fill-opacity="1" fill-rule="nonzero"/><g clip-path="url(#2bc9debc92)"><path fill="#000000" d="M 270.324219 243.027344 C 277.34375 245.15625 284.414062 247.988281 291.34375 251.4375 L 295.488281 243.128906 C 288.097656 239.453125 280.539062 236.429688 273.03125 234.148438 Z M 270.324219 243.027344 " fill-opacity="1" fill-rule="nonzero"/></g><path fill="#000000" d="M 182.566406 250.40625 L 175.199219 257.765625 L 181.769531 264.328125 L 189.140625 256.96875 C 205.105469 241.023438 230.007812 234.792969 257.464844 239.875 L 259.160156 230.75 C 228.648438 225.097656 200.730469 232.265625 182.566406 250.40625 Z M 182.566406 250.40625 " fill-opacity="1" fill-rule="nonzero"/><g clip-path="url(#a4c2a4c32e)"><path fill="#000000" d="M 135.851562 83.695312 L 127.53125 87.835938 C 131.03125 94.847656 133.894531 102.007812 136.042969 109.113281 L 144.9375 106.429688 C 142.640625 98.824219 139.582031 91.175781 135.851562 83.695312 Z M 135.851562 83.695312 " fill-opacity="1" fill-rule="nonzero"/></g><path fill="#000000" d="M 114.625 197.269531 L 121.195312 203.832031 L 128.566406 196.472656 C 146.726562 178.332031 153.902344 150.453125 148.246094 119.984375 L 139.109375 121.675781 C 144.199219 149.09375 137.960938 173.964844 121.996094 189.910156 Z M 114.625 197.269531 " fill-opacity="1" fill-rule="nonzero"/><g clip-path="url(#acbe385181)"><path fill="#000000" d="M 282.757812 89.84375 L 289.328125 96.40625 L 225.097656 160.554688 L 218.527344 153.992188 Z M 282.757812 89.84375 " fill-opacity="1" fill-rule="nonzero"/></g><path fill="#000000" d="M 215.839844 169.804688 L 173.078125 212.511719 L 166.507812 205.949219 L 209.269531 163.242188 Z M 215.839844 169.804688 " fill-opacity="1" fill-rule="nonzero"/><path fill="#000000" d="M 147.042969 238.515625 L 140.472656 231.949219 L 159.164062 213.285156 L 165.734375 219.847656 Z M 147.042969 238.515625 " fill-opacity="1" fill-rule="nonzero"/><g clip-path="url(#054bdb0e36)"><g clip-path="url(#0f85d8a30c)"><g clip-path="url(#99e1b281c8)"><g clip-path="url(#148b1397cf)"><path fill="#000000" d="M 139.785156 43.460938 C 143 37.347656 145.289062 27.203125 136.859375 20.097656 C 131.820312 15.851562 120.367188 13.894531 115.761719 6.492188 L 111.929688 7.09375 L 120.617188 65.886719 C 116.980469 65.066406 111.238281 66.195312 107.394531 68.933594 C 101.128906 73.398438 98.800781 80.984375 102.191406 85.875 C 105.578125 90.769531 113.40625 91.113281 119.671875 86.652344 C 124.519531 83.195312 127.007812 77.875 126.316406 73.375 L 121.652344 43.816406 L 121.65625 43.820312 C 127.707031 50.054688 152.292969 48.472656 140.050781 72.339844 C 143.496094 69.539062 152.292969 53.941406 140.652344 44.125 C 140.378906 43.898438 140.089844 43.679688 139.785156 43.460938 Z M 119.554688 30.519531 L 117.863281 19.789062 C 123.394531 25.492188 144.421875 24.65625 138.628906 42.710938 C 133.015625 39.347656 123.617188 37.054688 119.554688 30.519531 Z M 119.554688 30.519531 " fill-opacity="1" fill-rule="nonzero"/></g></g></g></g><g clip-path="url(#7131879874)"><path fill="#000000" d="M 207.359375 46.835938 C 206.726562 45.320312 205.847656 43.964844 204.71875 42.777344 C 203.589844 41.585938 202.285156 40.640625 200.8125 39.9375 C 199.449219 39.316406 198.019531 38.945312 196.53125 38.824219 C 195.039062 38.707031 193.570312 38.84375 192.128906 39.242188 C 190.65625 39.632812 189.292969 40.273438 188.046875 41.160156 C 187.90625 40.441406 187.785156 39.722656 187.667969 39.003906 C 187.453125 37.613281 187.242188 36.222656 187.050781 34.808594 C 188.351562 33.585938 189.535156 32.261719 190.609375 30.832031 C 191.988281 29.160156 193.109375 27.324219 193.972656 25.328125 C 194.835938 23.332031 195.40625 21.253906 195.6875 19.09375 C 196.96875 6.15625 192.863281 -0.0703125 189.542969 0.238281 C 182.28125 1.367188 183.253906 13.894531 184.679688 26.902344 C 183.710938 28.148438 182.667969 29.320312 181.546875 30.425781 L 179.460938 32.4375 C 178.796875 33.085938 178.082031 33.875 177.371094 34.691406 C 174.449219 37.867188 172.296875 41.507812 170.917969 45.613281 C 170.167969 47.726562 169.859375 49.898438 169.992188 52.136719 C 170.121094 54.375 170.683594 56.5 171.679688 58.503906 C 172.667969 60.347656 173.945312 61.960938 175.507812 63.339844 C 177.070312 64.71875 178.824219 65.785156 180.765625 66.53125 C 184.222656 67.863281 187.796875 68.40625 191.488281 68.160156 C 191.820312 70.003906 192.152344 71.824219 192.414062 73.523438 C 193.503906 78.003906 191.9375 82.054688 189.164062 83.46875 C 188.296875 83.867188 187.390625 84.03125 186.441406 83.960938 C 185.492188 83.886719 184.621094 83.585938 183.824219 83.058594 L 184.253906 83.058594 C 184.753906 83.078125 185.238281 82.996094 185.707031 82.8125 C 186.175781 82.632812 186.589844 82.371094 186.953125 82.019531 C 187.316406 81.671875 187.597656 81.265625 187.800781 80.804688 C 188.003906 80.339844 188.109375 79.855469 188.117188 79.347656 C 188.128906 78.84375 188.039062 78.355469 187.855469 77.882812 C 187.671875 77.414062 187.40625 76.996094 187.054688 76.636719 C 186.707031 76.273438 186.300781 75.992188 185.839844 75.792969 C 185.378906 75.597656 184.898438 75.496094 184.394531 75.492188 C 183.894531 75.488281 183.410156 75.582031 182.949219 75.773438 C 182.484375 75.964844 182.074219 76.242188 181.722656 76.597656 C 181.367188 76.957031 181.09375 77.371094 180.902344 77.835938 C 180.714844 78.304688 180.621094 78.792969 180.621094 79.300781 C 180.621094 79.464844 180.621094 79.632812 180.621094 79.800781 C 180.71875 80.632812 181.050781 81.351562 181.617188 81.957031 L 181.949219 82.390625 C 182.71875 83.324219 183.667969 84.003906 184.796875 84.425781 C 186.378906 84.976562 187.960938 84.976562 189.542969 84.425781 C 190.53125 84.066406 191.398438 83.515625 192.144531 82.769531 C 192.890625 82.023438 193.449219 81.15625 193.8125 80.160156 C 194.238281 79.117188 194.464844 78.03125 194.5 76.902344 C 194.4375 75.699219 194.3125 74.5 194.121094 73.308594 C 193.859375 71.609375 193.550781 69.835938 193.21875 68.039062 C 196.34375 67.585938 199.261719 66.546875 201.972656 64.925781 C 203.464844 63.992188 204.738281 62.820312 205.796875 61.40625 C 206.851562 59.992188 207.617188 58.433594 208.09375 56.730469 C 208.539062 55.089844 208.699219 53.417969 208.574219 51.71875 C 208.445312 50.023438 208.042969 48.394531 207.359375 46.835938 Z M 191.179688 5.03125 C 192.628906 5.484375 192.816406 7.425781 192.792969 8.792969 C 192.757812 11.90625 192.011719 14.835938 190.5625 17.585938 C 189.199219 20.117188 187.703125 22.570312 186.078125 24.941406 C 185.273438 11.980469 188.238281 4.097656 191.179688 5.03125 Z M 182.070312 63.65625 C 180.589844 62.925781 179.277344 61.96875 178.128906 60.777344 C 176.980469 59.589844 176.066406 58.242188 175.378906 56.730469 C 174.808594 55.222656 174.558594 53.664062 174.632812 52.050781 C 174.707031 50.4375 175.097656 48.90625 175.804688 47.460938 C 177.355469 44.324219 179.429688 41.59375 182.023438 39.265625 C 182.613281 38.691406 183.28125 38.09375 184.0625 37.445312 L 185.105469 36.558594 L 185.867188 35.914062 L 186.363281 39.21875 C 186.507812 40.175781 186.671875 41.136719 186.8125 42.09375 C 186.292969 42.539062 185.8125 43.027344 185.371094 43.550781 C 184.925781 44.074219 184.527344 44.632812 184.171875 45.21875 C 183.8125 45.808594 183.503906 46.421875 183.246094 47.058594 C 182.984375 47.695312 182.777344 48.351562 182.617188 49.019531 C 182.460938 49.691406 182.355469 50.371094 182.304688 51.058594 C 182.253906 51.746094 182.253906 52.433594 182.3125 53.121094 C 182.367188 53.808594 182.476562 54.488281 182.640625 55.15625 C 182.800781 55.824219 183.015625 56.480469 183.28125 57.113281 C 183.535156 57.78125 183.851562 58.421875 184.226562 59.03125 L 184.585938 59.652344 C 184.402344 58.742188 184.273438 57.824219 184.203125 56.898438 C 183.933594 54.40625 184.296875 52.007812 185.296875 49.710938 C 185.886719 48.464844 186.675781 47.359375 187.667969 46.40625 C 188.355469 50.40625 189.042969 54.261719 189.707031 57.882812 C 190.207031 60.707031 190.730469 63.414062 191.226562 65.980469 C 187.988281 65.960938 184.933594 65.1875 182.070312 63.65625 Z M 206.03125 56.300781 C 205.789062 57.820312 205.230469 59.207031 204.355469 60.46875 C 203.480469 61.730469 202.378906 62.734375 201.050781 63.488281 C 198.492188 64.945312 195.75 65.742188 192.816406 65.882812 C 192.320312 63.222656 191.75 60.445312 191.132812 57.523438 C 190.347656 53.6875 189.519531 49.566406 188.761719 45.304688 C 190.0625 44.332031 191.511719 43.683594 193.101562 43.363281 C 194.179688 43.175781 195.261719 43.152344 196.347656 43.296875 C 197.433594 43.445312 198.472656 43.75 199.464844 44.210938 C 200.460938 44.675781 201.363281 45.28125 202.175781 46.019531 C 202.988281 46.761719 203.671875 47.609375 204.226562 48.5625 C 204.972656 49.703125 205.5 50.9375 205.8125 52.269531 C 206.121094 53.597656 206.195312 54.941406 206.03125 56.300781 Z M 206.03125 56.300781 " fill-opacity="1" fill-rule="nonzero"/></g><g clip-path="url(#7f04d34f47)"><g clip-path="url(#90242fb495)"><g clip-path="url(#db0e69a752)"><g clip-path="url(#046309edc0)"><g clip-path="url(#7979530a70)"><path fill="#000000" d="M 309.414062 54.480469 L 287.867188 70.96875 C 287.664062 69.058594 286.949219 67.179688 285.695312 65.542969 C 282.066406 60.796875 275.289062 59.882812 270.554688 63.503906 C 265.824219 67.125 264.933594 73.90625 268.5625 78.648438 C 272.195312 83.394531 278.972656 84.304688 283.703125 80.6875 L 306.949219 62.898438 L 329.84375 79.960938 L 313.917969 92.144531 C 313.714844 90.234375 313.003906 88.355469 311.75 86.71875 C 308.117188 81.972656 301.339844 81.0625 296.609375 84.683594 C 291.878906 88.300781 290.988281 95.082031 294.617188 99.828125 C 298.246094 104.570312 305.023438 105.484375 309.757812 101.863281 L 340.957031 77.992188 L 309.414062 54.480469 " fill-opacity="1" fill-rule="nonzero"/></g></g></g></g></g><g clip-path="url(#5a38172e8b)"><path fill="#000000" d="M 371.609375 176.300781 C 358.660156 181.683594 351.058594 187.554688 346.851562 191.300781 C 343.527344 194.257812 328.753906 210.464844 305.664062 191.785156 C 328.269531 202.886719 341.671875 198.890625 349.9375 179.046875 L 302.082031 179.046875 C 282.371094 179.671875 281.164062 159.148438 286.40625 154.140625 C 291.824219 148.972656 309.785156 161.160156 303.886719 176.300781 Z M 371.609375 176.300781 " fill-opacity="1" fill-rule="evenodd"/></g><g clip-path="url(#2e613b8470)"><g clip-path="url(#980ce7c094)"><g clip-path="url(#02f8870f9e)"><g clip-path="url(#f0755ec131)"><path fill="#000000" d="M 334.277344 268.503906 C 335.796875 265.386719 339.5625 264.085938 342.671875 265.609375 C 344.226562 266.371094 346.105469 265.722656 346.867188 264.160156 C 347.628906 262.597656 346.984375 260.714844 345.429688 259.949219 L 311.992188 243.578125 C 313.78125 242.378906 315.289062 240.710938 316.300781 238.632812 C 319.355469 232.371094 316.761719 224.792969 310.527344 221.742188 C 304.289062 218.6875 296.730469 221.296875 293.679688 227.554688 C 290.628906 233.816406 293.21875 241.394531 299.457031 244.445312 L 332.914062 260.828125 C 331.140625 262.023438 329.644531 263.683594 328.640625 265.746094 C 327.121094 268.863281 323.351562 270.164062 320.246094 268.640625 C 318.6875 267.878906 316.808594 268.527344 316.046875 270.089844 C 315.285156 271.652344 315.929688 273.535156 317.488281 274.300781 C 323.703125 277.347656 331.234375 274.746094 334.277344 268.503906 Z M 334.277344 268.503906 " fill-opacity="1" fill-rule="nonzero"/></g></g></g></g><g clip-path="url(#d329de8a27)"><g clip-path="url(#a151519b86)"><g clip-path="url(#e49abb7d39)"><g clip-path="url(#eef41646ab)"><path fill="#000000" d="M 305.472656 264.179688 C 305.332031 262.03125 306.960938 260.167969 309.101562 260.023438 C 310.175781 259.953125 310.988281 259.023438 310.917969 257.949219 C 310.847656 256.875 309.921875 256.058594 308.851562 256.128906 L 285.816406 257.660156 C 286.410156 256.460938 286.710938 255.097656 286.617188 253.667969 C 286.339844 249.359375 282.613281 246.082031 278.320312 246.367188 C 274.023438 246.65625 270.753906 250.394531 271.035156 254.703125 C 271.3125 259.011719 275.035156 262.289062 279.332031 262.003906 L 302.382812 260.472656 C 301.792969 261.664062 301.496094 263.019531 301.589844 264.4375 C 301.726562 266.582031 300.097656 268.445312 297.957031 268.589844 C 296.886719 268.660156 296.074219 269.589844 296.144531 270.664062 C 296.210938 271.738281 297.136719 272.554688 298.210938 272.484375 C 302.492188 272.199219 305.75 268.472656 305.472656 264.179688 Z M 305.472656 264.179688 " fill-opacity="1" fill-rule="nonzero"/></g></g></g></g></svg>