<svg xmlns="http://www.w3.org/2000/svg" xmlns:xlink="http://www.w3.org/1999/xlink" width="500" height="500" version="1.0" viewBox="0 0 375 375">
  <defs>
    <path id="reuse-0" d="M116 45h256v280H116Zm0 0"/>
    <path id="reuse-1" d="m150.523 40.223 230.918 46.246-53.46 266.949-230.918-46.246Zm0 0"/>
    <path id="reuse-2" d="M115 44h259v283H115Zm0 0"/>
    <path id="reuse-3" d="m150.512 40.293 230.902 46.242-53.129 265.305L97.38 305.598Zm0 0"/>
    <path id="reuse-4" d="M252 176h51v33h-51Zm0 0"/>
    <path id="reuse-5" d="M165 139h49v34h-49Zm0 0"/>
    <path id="reuse-6" d="M156 211h102v79H156Zm0 0"/>
    <path id="reuse-7" d="M-49.875 56.89 88.402 14.095l90.473 292.32-138.281 42.793Zm0 0"/>
    <path id="reuse-8" fill="#ffffff" d="M170.023 45.89c31.153 23.223 36.45 32.731 72.137 49.637 35.68 16.907 73.738 29.45 129.836 29.59-27.93 61.863-43.871 96.64-70.437 136.766-46.336 69.98-90.29 68.097-126.016 56.73-48.629-15.465-63.54-70.11-57.254-107.59 8.965-53.445 23.527-93.62 51.734-165.132"/>
    <path id="reuse-9" fill="#000000" d="M170.77 48.52c-27.856 70.687-42.016 110.152-50.844 162.78-5.41 32.259 5.039 89.485 56.117 105.735 35.543 11.305 78.082 13.485 124.133-56.066 25.773-38.934 40.86-71.324 69.258-134.211-58.399-.543-96.028-14.59-127.985-29.73-25.234-11.958-35.633-20.442-50.023-32.188-5.77-4.707-12.254-10-20.656-16.32Zm19.523 275.683c-5.293-1.058-10.383-2.457-15.254-4.008-28.469-9.054-43.031-30.254-50.234-46.445-8.637-19.422-11.61-42.387-8.153-63 8.965-53.438 23.36-93.29 51.828-165.469.192-.48.594-.843 1.09-.988a1.662 1.662 0 0 1 1.446.266c9.312 6.945 16.32 12.664 22.507 17.71C208.262 74.298 218 82.247 242.867 94.032c32.074 15.196 69.918 29.278 129.133 29.426a1.657 1.657 0 0 1 1.508 2.34c-29.156 64.582-44.336 97.383-70.567 137.004-40.843 61.687-80.394 67.863-112.648 61.402"/>
    <path id="reuse-10" fill="#000000" d="M265.074 178.363c-4.91 1.961-9.672 5.524-11.949 10.848-.262.613-.496 1.289-.41 1.945.152 1.176 1.226 1.836 2.226 2.172 3.664 1.238 7.68.387 11.555.461 11.004.211 20.313 7.774 29.973 13.215 1.133.637 2.398 1.266 3.66.894 1.445-.421 3.734-4.902 1.976-9.949-5.027-14.437-23.886-24.844-37.03-19.586"/>
    <path id="reuse-11" fill="#000000" d="M210.965 154.36c2.12 4.84 3.015 10.722.898 16.109-.242.625-.55 1.265-1.074 1.676-.93.73-2.16.449-3.11-.012-3.48-1.692-5.742-5.117-8.554-7.781-7.984-7.57-19.926-8.715-30.629-11.618-1.254-.34-2.594-.78-3.234-1.93-.735-1.312.781-6.113 5.57-8.476 13.715-6.758 34.457-.937 40.133 12.031"/>
    <path id="reuse-12" fill="#000000" d="M175.055 279.691c14.945 11.864 29.77 11.09 44.078 7.989 9.922-2.153 40.758-25.88 37.785-36.7-2.106-7.648-30.094 7.696-52.781-1.699-26.98-11.164-35.899-38.187-41.535-37.597-4.153.433-5.954 8.91-5.973 13.086-.11 27.43 6.277 45.28 18.426 54.921"/>
  </defs>
  <defs>
    <clipPath id="a">
      <use xlink:href="#reuse-0"/>
    </clipPath>
    <clipPath id="b">
      <use xlink:href="#reuse-1"/>
    </clipPath>
    <clipPath id="c">
      <use xlink:href="#reuse-1"/>
    </clipPath>
    <clipPath id="d">
      <use xlink:href="#reuse-1"/>
    </clipPath>
    <clipPath id="e">
      <use xlink:href="#reuse-2"/>
    </clipPath>
    <clipPath id="f">
      <use xlink:href="#reuse-1"/>
    </clipPath>
    <clipPath id="g">
      <use xlink:href="#reuse-1"/>
    </clipPath>
    <clipPath id="h">
      <use xlink:href="#reuse-1"/>
    </clipPath>
    <clipPath id="i">
      <use xlink:href="#reuse-3"/>
    </clipPath>
    <clipPath id="j">
      <use xlink:href="#reuse-4"/>
    </clipPath>
    <clipPath id="k">
      <use xlink:href="#reuse-1"/>
    </clipPath>
    <clipPath id="l">
      <use xlink:href="#reuse-1"/>
    </clipPath>
    <clipPath id="m">
      <use xlink:href="#reuse-1"/>
    </clipPath>
    <clipPath id="n">
      <use xlink:href="#reuse-5"/>
    </clipPath>
    <clipPath id="o">
      <use xlink:href="#reuse-1"/>
    </clipPath>
    <clipPath id="p">
      <use xlink:href="#reuse-1"/>
    </clipPath>
    <clipPath id="q">
      <use xlink:href="#reuse-1"/>
    </clipPath>
    <clipPath id="r">
      <use xlink:href="#reuse-6"/>
    </clipPath>
    <clipPath id="s">
      <use xlink:href="#reuse-1"/>
    </clipPath>
    <clipPath id="t">
      <use xlink:href="#reuse-1"/>
    </clipPath>
    <clipPath id="u">
      <use xlink:href="#reuse-1"/>
    </clipPath>
    <clipPath id="v">
      <path d="M163 68h17v37h-17Zm0 0"/>
    </clipPath>
    <clipPath id="w">
      <use xlink:href="#reuse-1"/>
    </clipPath>
    <clipPath id="x">
      <use xlink:href="#reuse-1"/>
    </clipPath>
    <clipPath id="y">
      <use xlink:href="#reuse-1"/>
    </clipPath>
    <clipPath id="z">
      <path d="M184 78h9v17h-9Zm0 0"/>
    </clipPath>
    <clipPath id="A">
      <use xlink:href="#reuse-1"/>
    </clipPath>
    <clipPath id="B">
      <use xlink:href="#reuse-1"/>
    </clipPath>
    <clipPath id="C">
      <use xlink:href="#reuse-1"/>
    </clipPath>
    <clipPath id="D">
      <use xlink:href="#reuse-0"/>
    </clipPath>
    <clipPath id="E">
      <use xlink:href="#reuse-1"/>
    </clipPath>
    <clipPath id="F">
      <use xlink:href="#reuse-1"/>
    </clipPath>
    <clipPath id="G">
      <use xlink:href="#reuse-1"/>
    </clipPath>
    <clipPath id="H">
      <use xlink:href="#reuse-2"/>
    </clipPath>
    <clipPath id="I">
      <use xlink:href="#reuse-1"/>
    </clipPath>
    <clipPath id="J">
      <use xlink:href="#reuse-1"/>
    </clipPath>
    <clipPath id="K">
      <use xlink:href="#reuse-1"/>
    </clipPath>
    <clipPath id="L">
      <use xlink:href="#reuse-3"/>
    </clipPath>
    <clipPath id="M">
      <use xlink:href="#reuse-4"/>
    </clipPath>
    <clipPath id="N">
      <use xlink:href="#reuse-1"/>
    </clipPath>
    <clipPath id="O">
      <use xlink:href="#reuse-1"/>
    </clipPath>
    <clipPath id="P">
      <use xlink:href="#reuse-1"/>
    </clipPath>
    <clipPath id="Q">
      <use xlink:href="#reuse-5"/>
    </clipPath>
    <clipPath id="R">
      <use xlink:href="#reuse-1"/>
    </clipPath>
    <clipPath id="S">
      <use xlink:href="#reuse-1"/>
    </clipPath>
    <clipPath id="T">
      <use xlink:href="#reuse-1"/>
    </clipPath>
    <clipPath id="U">
      <use xlink:href="#reuse-6"/>
    </clipPath>
    <clipPath id="V">
      <use xlink:href="#reuse-1"/>
    </clipPath>
    <clipPath id="W">
      <use xlink:href="#reuse-1"/>
    </clipPath>
    <clipPath id="X">
      <use xlink:href="#reuse-1"/>
    </clipPath>
    <clipPath id="Y">
      <path d="M163 71h16v38h-16Zm0 0"/>
    </clipPath>
    <clipPath id="Z">
      <use xlink:href="#reuse-1"/>
    </clipPath>
    <clipPath id="aa">
      <use xlink:href="#reuse-1"/>
    </clipPath>
    <clipPath id="ab">
      <use xlink:href="#reuse-1"/>
    </clipPath>
    <clipPath id="ac">
      <path d="M181 78h8v17h-8Zm0 0"/>
    </clipPath>
    <clipPath id="ad">
      <use xlink:href="#reuse-1"/>
    </clipPath>
    <clipPath id="ae">
      <use xlink:href="#reuse-1"/>
    </clipPath>
    <clipPath id="af">
      <use xlink:href="#reuse-1"/>
    </clipPath>
    <clipPath id="ag">
      <path d="M337 137h14v27h-14Zm0 0"/>
    </clipPath>
    <clipPath id="ah">
      <use xlink:href="#reuse-1"/>
    </clipPath>
    <clipPath id="ai">
      <use xlink:href="#reuse-1"/>
    </clipPath>
    <clipPath id="aj">
      <use xlink:href="#reuse-1"/>
    </clipPath>
    <clipPath id="ak">
      <path d="M3 35h142v296H3Zm0 0"/>
    </clipPath>
    <clipPath id="al">
      <use xlink:href="#reuse-7"/>
    </clipPath>
    <clipPath id="am">
      <use xlink:href="#reuse-7"/>
    </clipPath>
    <clipPath id="an">
      <use xlink:href="#reuse-7"/>
    </clipPath>
  </defs>
  <g clip-path="url(#a)">
    <g clip-path="url(#b)">
      <g clip-path="url(#c)">
        <g clip-path="url(#d)">
          <use xlink:href="#reuse-8"/>
        </g>
      </g>
    </g>
  </g>
  <g clip-path="url(#e)">
    <g clip-path="url(#f)">
      <g clip-path="url(#g)">
        <g clip-path="url(#h)">
          <g clip-path="url(#i)">
            <use xlink:href="#reuse-9"/>
          </g>
        </g>
      </g>
    </g>
  </g>
  <g clip-path="url(#j)">
    <g clip-path="url(#k)">
      <g clip-path="url(#l)">
        <g clip-path="url(#m)">
          <use xlink:href="#reuse-10"/>
        </g>
      </g>
    </g>
  </g>
  <g clip-path="url(#n)">
    <g clip-path="url(#o)">
      <g clip-path="url(#p)">
        <g clip-path="url(#q)">
          <use xlink:href="#reuse-11"/>
        </g>
      </g>
    </g>
  </g>
  <g clip-path="url(#r)">
    <g clip-path="url(#s)">
      <g clip-path="url(#t)">
        <g clip-path="url(#u)">
          <use xlink:href="#reuse-12"/>
        </g>
      </g>
    </g>
  </g>
  <g clip-path="url(#v)">
    <g clip-path="url(#w)">
      <g clip-path="url(#x)">
        <g clip-path="url(#y)">
          <path fill="#000000" d="M164.547 104.133a1.66 1.66 0 0 1-1.227-2.223l12.508-32.46a1.66 1.66 0 0 1 3.098 1.191l-12.508 32.464a1.66 1.66 0 0 1-1.871 1.028"/>
        </g>
      </g>
    </g>
  </g>
  <g clip-path="url(#z)">
    <g clip-path="url(#A)">
      <g clip-path="url(#B)">
        <g clip-path="url(#C)">
          <path fill="#000000" d="M185.508 94.68a1.656 1.656 0 0 1-1.246-2.164c1.465-4.27 3.187-8.5 5.125-12.578a1.66 1.66 0 1 1 3 1.421 116.963 116.963 0 0 0-4.989 12.23 1.658 1.658 0 0 1-1.89 1.09"/>
        </g>
      </g>
    </g>
  </g>
  <g clip-path="url(#D)">
    <g clip-path="url(#E)">
      <g clip-path="url(#F)">
        <g clip-path="url(#G)">
          <use xlink:href="#reuse-8"/>
        </g>
      </g>
    </g>
  </g>
  <g clip-path="url(#H)">
    <g clip-path="url(#I)">
      <g clip-path="url(#J)">
        <g clip-path="url(#K)">
          <g clip-path="url(#L)">
            <use xlink:href="#reuse-9"/>
          </g>
        </g>
      </g>
    </g>
  </g>
  <g clip-path="url(#M)">
    <g clip-path="url(#N)">
      <g clip-path="url(#O)">
        <g clip-path="url(#P)">
          <use xlink:href="#reuse-10"/>
        </g>
      </g>
    </g>
  </g>
  <g clip-path="url(#Q)">
    <g clip-path="url(#R)">
      <g clip-path="url(#S)">
        <g clip-path="url(#T)">
          <use xlink:href="#reuse-11"/>
        </g>
      </g>
    </g>
  </g>
  <g clip-path="url(#U)">
    <g clip-path="url(#V)">
      <g clip-path="url(#W)">
        <g clip-path="url(#X)">
          <use xlink:href="#reuse-12"/>
        </g>
      </g>
    </g>
  </g>
  <g clip-path="url(#Y)">
    <g clip-path="url(#Z)">
      <g clip-path="url(#aa)">
        <g clip-path="url(#ab)">
          <path fill="#000000" d="M163.445 108.04c-.03-.009-.062-.017-.093-.028a.553.553 0 0 1-.313-.719l13.95-35.422a.549.549 0 0 1 .714-.312c.285.109.426.43.313.714l-13.95 35.426a.55.55 0 0 1-.62.34"/>
        </g>
      </g>
    </g>
  </g>
  <g clip-path="url(#ac)">
    <g clip-path="url(#ad)">
      <g clip-path="url(#ae)">
        <g clip-path="url(#af)">
          <path fill="#000000" d="M182.016 94.465a.943.943 0 0 1-.098-.031.55.55 0 0 1-.309-.715l6.118-15.227a.548.548 0 0 1 .718-.308.551.551 0 0 1 .309.718l-6.117 15.227a.554.554 0 0 1-.621.336"/>
        </g>
      </g>
    </g>
  </g>
  <g clip-path="url(#ag)">
    <g clip-path="url(#ah)">
      <g clip-path="url(#ai)">
        <g clip-path="url(#aj)">
          <path fill="#000000" d="M338.016 163.293a.557.557 0 0 1-.395-.781l11.774-24.832a.55.55 0 0 1 .734-.262c.277.129.394.46.266.738l-11.774 24.832a.55.55 0 0 1-.605.305"/>
        </g>
      </g>
    </g>
  </g>
  <g clip-path="url(#ak)">
    <g clip-path="url(#al)">
      <g clip-path="url(#am)">
        <g clip-path="url(#an)">
          <path fill="#000000" d="M131.793 177.066a48.065 48.065 0 0 0-6.238-6.18 48.186 48.186 0 0 0-15.297-8.476 47.54 47.54 0 0 0-8.547-2.02 46.696 46.696 0 0 0-16.055.782 46.898 46.898 0 0 0-14.844 6.164 45.795 45.795 0 0 0-12.132 10.973c-1.258-2.317-2.438-4.66-3.614-7.004-2.218-4.547-4.437-9.09-6.601-13.746a113.241 113.241 0 0 0 8.129-17.496A82.85 82.85 0 0 0 60.304 129a82.96 82.96 0 0 0 2.114-11.477 82.662 82.662 0 0 0-.676-23.266C52.43 48.415 31.547 31.419 20.344 36.06c-24.02 11.675-7.313 53.695 11.472 96.875a131.64 131.64 0 0 1-7.132 15.472l-5.11 9.16c-1.62 2.938-3.25 6.422-4.855 9.985a109.003 109.003 0 0 0-7.754 21.672 108.818 108.818 0 0 0-3.04 22.816 59.021 59.021 0 0 0 16.348 43.484 63.248 63.248 0 0 0 18.45 12.504 62.893 62.893 0 0 0 10.586 3.618 62.997 62.997 0 0 0 11.062 1.695c6.633.43 13.238.144 19.809-.856 6.574-1 12.96-2.691 19.168-5.074 3.117 5.985 6.207 11.887 8.922 17.453 8.558 14.223 7.425 29.825-.711 37.664a19.974 19.974 0 0 1-4.172 2.875 19.899 19.899 0 0 1-4.754 1.743c-1.66.382-3.34.546-5.043.5a19.917 19.917 0 0 1-5.004-.778l1.484-.46a13.5 13.5 0 0 0 2.512-.966A13.79 13.79 0 0 0 94.855 324c.711-.559 1.36-1.176 1.946-1.863a13.546 13.546 0 0 0 1.543-2.207c.441-.785.8-1.606 1.078-2.465.277-.86.469-1.735.57-2.63.106-.897.117-1.792.043-2.69a13.567 13.567 0 0 0-.484-2.649c-.25-.863-.582-1.7-1-2.496a13.45 13.45 0 0 0-1.469-2.254 13.71 13.71 0 0 0-1.887-1.922 13.457 13.457 0 0 0-2.226-1.512 13.303 13.303 0 0 0-2.48-1.046 13.795 13.795 0 0 0-2.637-.54 13.81 13.81 0 0 0-2.696-.007c-.894.086-1.777.261-2.64.52a13.697 13.697 0 0 0-4.727 2.53 13.472 13.472 0 0 0-3.383 4.153 13.4 13.4 0 0 0-1.015 2.492 13.518 13.518 0 0 0-.508 2.645 13.496 13.496 0 0 0 .578 5.324c.176.574.355 1.152.535 1.726a13.333 13.333 0 0 0 2.363 3.637 13.345 13.345 0 0 0 3.391 2.703l1.613 1.125c3.664 2.387 7.684 3.7 12.055 3.942 2.953.093 5.84-.297 8.664-1.172a26.288 26.288 0 0 0 7.813-3.93 25.858 25.858 0 0 0 7.28-8.484 26.129 26.129 0 0 0 2.098-5.22 25.88 25.88 0 0 0 .918-5.542 33.353 33.353 0 0 0-1.074-11.938 122.64 122.64 0 0 0-5.144-11.945c-2.715-5.566-5.672-11.328-8.735-17.148a86.692 86.692 0 0 0 14.532-8.727 86.596 86.596 0 0 0 12.558-11.387 50.645 50.645 0 0 0 5.52-7.656 50.786 50.786 0 0 0 4.011-8.539 50.878 50.878 0 0 0 2.371-9.133c.504-3.117.72-6.254.641-9.414a52.7 52.7 0 0 0-1.074-9.023 52.793 52.793 0 0 0-2.598-8.711 53.018 53.018 0 0 0-4.039-8.145 53.021 53.021 0 0 0-5.367-7.336ZM31.125 50.77c5.512.007 8.234 6.472 9.605 11.19a68.585 68.585 0 0 1 2.762 16.212 68.57 68.57 0 0 1-1.156 16.406 288.529 288.529 0 0 1-7.75 30.102c-16.59-43.684-14.672-73.961-3.461-73.91Zm30.719 211.285a51.51 51.51 0 0 1-8.614-2.106 51.42 51.42 0 0 1-8.128-3.547 51.4 51.4 0 0 1-7.399-4.879 51.645 51.645 0 0 1-6.46-6.074 41.596 41.596 0 0 1-7.566-15.285 41.484 41.484 0 0 1-1.286-8.477c-.137-2.87.02-5.726.472-8.562a97.856 97.856 0 0 1 4.77-18.035 97.787 97.787 0 0 1 8.105-16.809 123.062 123.062 0 0 1 5.149-8.453l2.683-4.168 1.946-3.039 5.25 10.828c1.511 3.14 3.109 6.258 4.62 9.399a48.59 48.59 0 0 0-1.859 3.21 48.794 48.794 0 0 0-1.605 3.352 47.627 47.627 0 0 0-2.39 7.024 48.45 48.45 0 0 0-.774 3.632 46.918 46.918 0 0 0-.18 14.793c.18 1.227.406 2.442.684 3.649.273 1.21.597 2.402.968 3.586a47.635 47.635 0 0 0 1.247 3.496A48.715 48.715 0 0 0 53 228.977a46.63 46.63 0 0 0 3.816 6.363 47.12 47.12 0 0 0 2.274 2.937 41.549 41.549 0 0 0 5.336 5.567l1.898 1.758a80.035 80.035 0 0 1-4.25-9.063 50.56 50.56 0 0 1-3.855-25.875 40.351 40.351 0 0 1 4.722-13.914A3719.864 3719.864 0 0 0 82.234 234c4.739 9.18 9.434 17.926 13.891 26.2a71.894 71.894 0 0 1-17.031 3 71.752 71.752 0 0 1-17.25-1.145Zm75.402-51.035c.379 2.707.45 5.421.215 8.144a36.18 36.18 0 0 1-1.606 7.988 36.076 36.076 0 0 1-3.347 7.43 36.036 36.036 0 0 1-4.922 6.496 67.095 67.095 0 0 1-12.02 10.067 66.967 66.967 0 0 1-14.023 7.015c-4.559-8.605-9.492-17.543-14.746-26.926C80 218.902 72.734 205.63 65.559 191.79a39.213 39.213 0 0 1 13.015-11.336 39.55 39.55 0 0 1 5.465-2.281 39.292 39.292 0 0 1 5.742-1.43 39.815 39.815 0 0 1 5.895-.554c1.98-.036 3.949.078 5.91.343a39.167 39.167 0 0 1 21.164 9.828 41.248 41.248 0 0 1 5.21 5.106 41.444 41.444 0 0 1 4.235 5.933 41.498 41.498 0 0 1 3.125 6.59 41.25 41.25 0 0 1 1.926 7.032Zm0 0"/>
        </g>
      </g>
    </g>
  </g>
</svg>
