<svg xmlns="http://www.w3.org/2000/svg" xmlns:xlink="http://www.w3.org/1999/xlink" width="500" zoomAndPan="magnify" viewBox="0 0 375 374.999991" height="500" preserveAspectRatio="xMidYMid meet" version="1.0"><path fill="#ffffff" d="M 186.867188 372.039062 C 180.828125 372.054688 174.796875 371.773438 168.785156 371.191406 C 162.773438 370.609375 156.800781 369.730469 150.875 368.558594 C 144.949219 367.382812 139.09375 365.921875 133.3125 364.167969 C 127.53125 362.414062 121.851562 360.378906 116.269531 358.0625 C 110.691406 355.746094 105.238281 353.15625 99.914062 350.300781 C 94.59375 347.445312 89.421875 344.332031 84.410156 340.960938 C 79.394531 337.589844 74.558594 333.984375 69.902344 330.132812 C 65.242188 326.285156 60.789062 322.214844 56.535156 317.925781 C 21.824219 283.070312 2.734375 236.636719 2.773438 187.175781 C 2.765625 181.175781 3.050781 175.191406 3.632812 169.21875 C 4.210938 163.246094 5.085938 157.316406 6.246094 151.433594 C 7.410156 145.546875 8.859375 139.730469 10.59375 133.988281 C 12.328125 128.242188 14.34375 122.597656 16.632812 117.050781 C 18.921875 111.507812 21.476562 106.085938 24.300781 100.792969 C 27.121094 95.496094 30.199219 90.351562 33.527344 85.359375 C 36.855469 80.367188 40.417969 75.550781 44.222656 70.910156 C 48.023438 66.269531 52.042969 61.824219 56.28125 57.578125 C 91.035156 22.570312 137.683594 3.136719 187.632812 2.847656 C 237.3125 3.085938 283.78125 22.339844 318.476562 57.078125 C 353.175781 91.8125 372.253906 138.179688 372.226562 187.648438 C 372.246094 193.707031 371.960938 199.75 371.378906 205.777344 C 370.796875 211.804688 369.917969 217.789062 368.742188 223.730469 C 367.566406 229.671875 366.097656 235.539062 364.339844 241.335938 C 362.582031 247.128906 360.539062 252.824219 358.214844 258.414062 C 355.890625 264.007812 353.296875 269.472656 350.429688 274.808594 C 347.5625 280.140625 344.4375 285.320312 341.058594 290.34375 C 337.675781 295.371094 334.054688 300.214844 330.191406 304.878906 C 326.328125 309.542969 322.246094 314.007812 317.941406 318.265625 C 283.035156 352.941406 236.554688 372.039062 187.066406 372.039062 Z M 186.867188 372.039062 " fill-opacity="1" fill-rule="nonzero"/><path fill="#000000" d="M 186.863281 374.742188 C 290.613281 374.851562 374.859375 291.679688 374.925781 187.648438 C 374.988281 83.878906 291.863281 0.644531 187.617188 0.148438 C 82.226562 0.753906 0.183594 85.261719 0.0742188 187.175781 C -0.0117188 290.925781 83.351562 374.65625 186.863281 374.742188 Z M 249.664062 332.21875 C 247.636719 339.625 244.71875 346.707031 242.28125 353.964844 C 241.828125 355.304688 240.875 355.628906 239.773438 355.972656 C 235.03125 357.4375 230.238281 358.695312 225.390625 359.753906 C 220.542969 360.808594 215.660156 361.660156 210.738281 362.304688 C 205.820312 362.949219 200.882812 363.382812 195.925781 363.609375 C 190.96875 363.835938 186.011719 363.851562 181.054688 363.65625 C 176.09375 363.464844 171.152344 363.0625 166.230469 362.449219 C 161.304688 361.835938 156.417969 361.019531 151.5625 359.992188 C 146.707031 358.96875 141.90625 357.738281 137.15625 356.308594 C 132.402344 354.875 127.722656 353.246094 123.109375 351.417969 C 119.222656 349.882812 120.023438 350.097656 121.121094 347.097656 C 124.105469 339.320312 126.078125 331.292969 127.042969 323.015625 C 127.277344 320.683594 127.300781 320.640625 129.914062 320.617188 C 148.789062 320.46875 166.863281 316.320312 184.378906 309.519531 C 186.523438 308.734375 188.597656 307.789062 190.601562 306.6875 C 192.113281 305.847656 193.171875 306.082031 194.554688 306.988281 C 202.703125 312.359375 211.269531 316.949219 220.257812 320.757812 C 229.242188 324.5625 238.5 327.527344 248.027344 329.644531 C 250.226562 330.144531 250.226562 330.167969 249.664062 332.21875 Z M 124.253906 134.847656 C 124.148438 132.859375 124.644531 131.695312 126.480469 130.613281 C 143.171875 120.917969 158.875 109.753906 174.035156 97.808594 C 174.554688 97.464844 175.027344 97.070312 175.460938 96.621094 C 177.144531 94.460938 179.085938 94.65625 181.507812 95.347656 C 200.445312 100.660156 218.371094 108.457031 235.667969 117.742188 C 239.601562 119.859375 243.574219 121.847656 247.332031 124.285156 C 248.300781 124.886719 249.085938 125.667969 249.695312 126.632812 C 250.304688 127.59375 250.675781 128.640625 250.808594 129.773438 C 251.738281 135.085938 252.492188 140.398438 253.121094 145.753906 C 254.242188 155.449219 254.703125 165.175781 254.503906 174.929688 C 254.4375 179.078125 253.292969 182.230469 250.140625 185.253906 C 234.828125 199.9375 218.78125 213.632812 201.117188 225.378906 C 198.179688 227.324219 195.132812 229.117188 192.238281 231.101562 C 191.722656 231.460938 191.152344 231.679688 190.53125 231.75 C 189.90625 231.824219 189.300781 231.746094 188.714844 231.511719 C 181.15625 229.332031 173.535156 227.324219 166.039062 224.925781 C 155.566406 221.601562 145.457031 217.324219 135.378906 212.960938 C 134.59375 212.714844 133.933594 212.273438 133.398438 211.648438 C 132.867188 211.019531 132.539062 210.300781 132.417969 209.484375 C 128.875 192.734375 126.433594 175.824219 125.097656 158.753906 C 124.6875 153.894531 124.421875 149.039062 124.296875 144.179688 C 124.300781 141.066406 124.40625 137.933594 124.253906 134.847656 Z M 309.273438 275.289062 C 309.078125 276.441406 308.554688 277.414062 307.695312 278.207031 C 301.605469 285.160156 294.824219 291.398438 287.9375 297.535156 C 277.933594 306.265625 267.335938 314.207031 256.148438 321.355469 C 254.746094 322.285156 253.621094 321.9375 252.347656 321.570312 C 242.359375 318.761719 232.648438 315.199219 223.214844 310.882812 C 214.726562 307.015625 206.476562 302.695312 198.464844 297.921875 C 197.082031 297.082031 196.671875 296.347656 197.019531 294.726562 C 200.167969 279.847656 200.730469 264.75 200.472656 249.609375 C 200.417969 246.390625 200.078125 243.203125 199.457031 240.042969 C 199.160156 238.554688 199.546875 237.820312 200.839844 237.0625 C 214.21875 229.28125 226.679688 220.230469 238.21875 209.914062 C 244.425781 204.402344 250.226562 198.492188 255.625 192.183594 C 258.414062 188.921875 258.347656 189.035156 262.429688 190.242188 C 277.875 194.777344 292.535156 201.339844 307.410156 207.347656 C 309.871094 208.339844 310.886719 209.65625 310.933594 212.335938 C 311.042969 219.980469 311.386719 227.644531 311.648438 235.3125 C 311.886719 248.703125 310.738281 262.007812 309.273438 275.289062 Z M 361.449219 160.222656 C 362.898438 169.351562 363.589844 178.539062 363.523438 187.78125 C 363.394531 222.898438 353.761719 255.183594 334.628906 284.640625 C 332.554688 287.816406 332.554688 287.816406 329.660156 285.269531 C 326.613281 282.582031 323.28125 280.3125 319.660156 278.464844 C 318.367188 277.773438 317.910156 277.082031 318.171875 275.550781 C 321.140625 258.101562 321.867188 240.558594 320.351562 222.921875 C 320.027344 218.90625 319.402344 214.886719 318.839844 210.890625 C 318.714844 210.390625 318.699219 209.890625 318.796875 209.382812 C 318.898438 208.875 319.097656 208.414062 319.402344 208 C 322.859375 203.550781 325.191406 198.429688 327.457031 193.335938 C 332.253906 182.644531 336.765625 171.847656 339.378906 160.378906 C 340.308594 156.230469 340.285156 156.1875 344.519531 156.449219 C 349.074219 156.730469 353.609375 157.054688 358.167969 157.355469 C 361.039062 157.546875 361.039062 157.546875 361.449219 160.222656 Z M 286.574219 49.605469 C 288.777344 49.046875 290.9375 48.347656 293.050781 47.511719 C 294.003906 47.101562 294.625 47.8125 295.253906 48.332031 C 297.824219 50.402344 300.4375 52.453125 302.921875 54.636719 C 330.285156 78.695312 348.75 108.304688 357.992188 143.59375 C 359.007812 147.480469 359.007812 147.480469 354.863281 147.351562 C 353.523438 147.308594 352.164062 147.285156 350.824219 147.242188 L 349.269531 147.242188 L 349.269531 147.4375 C 346.894531 147.4375 344.496094 147.328125 342.140625 147.480469 C 340.519531 147.589844 339.742188 147.09375 339.246094 145.515625 C 336.601562 137.523438 333.058594 129.953125 328.621094 122.800781 C 322.207031 112.128906 314.304688 102.671875 304.371094 95.199219 C 302.789062 94.085938 301.496094 92.710938 300.480469 91.066406 C 299.46875 89.425781 298.820312 87.648438 298.539062 85.738281 C 296.199219 74.308594 292.398438 63.390625 287.136719 52.976562 C 286.8125 52.328125 286.488281 51.683594 286.140625 51.054688 C 285.820312 50.425781 285.710938 49.84375 286.574219 49.605469 Z M 205.671875 23.992188 C 222.613281 26.429688 238.78125 31.390625 254.179688 38.871094 C 259.601562 41.480469 264.933594 44.246094 270.09375 47.335938 C 270.429688 47.578125 270.789062 47.773438 271.175781 47.917969 C 275.515625 49.019531 277.222656 52.261719 278.671875 56.164062 C 282.796875 67.460938 286.988281 78.710938 289.492188 90.5 C 289.621094 91.105469 289.792969 91.710938 289.859375 91.992188 C 290.03125 93.027344 289.773438 93.546875 289.105469 93.828125 C 288.347656 94.152344 287.570312 94.453125 286.816406 94.800781 C 274.441406 100.417969 262.300781 106.421875 251.355469 114.585938 C 251.152344 114.777344 250.921875 114.925781 250.667969 115.035156 C 250.410156 115.144531 250.144531 115.203125 249.867188 115.21875 C 249.589844 115.230469 249.316406 115.191406 249.054688 115.105469 C 248.789062 115.019531 248.546875 114.890625 248.332031 114.714844 C 243.339844 111.757812 238.355469 108.796875 233.257812 106.03125 C 217.097656 97.109375 200.007812 90.644531 181.988281 86.640625 C 180.128906 86.25 179.09375 85.515625 178.550781 83.660156 C 177.820312 81.066406 176.113281 78.863281 174.945312 76.445312 C 172.753906 71.75 170.910156 66.917969 169.417969 61.953125 C 167.734375 56.621094 166.0625 51.28125 164.40625 45.929688 C 163.695312 43.664062 163.671875 43.597656 165.59375 42.453125 C 177.242188 35.4375 189.394531 29.4375 202.050781 24.460938 C 203.214844 23.96875 204.421875 23.8125 205.671875 23.992188 Z M 87.800781 42.433594 C 88.339844 42.109375 88.835938 41.742188 89.355469 41.394531 C 95.328125 37.363281 101.527344 33.714844 107.953125 30.449219 C 114.378906 27.183594 120.984375 24.328125 127.761719 21.882812 C 134.542969 19.433594 141.445312 17.414062 148.476562 15.824219 C 155.507812 14.234375 162.609375 13.082031 169.78125 12.371094 L 174.121094 11.921875 C 175.871094 11.855469 176.992188 11.789062 178.117188 12.21875 C 182.445312 13.964844 186.621094 16.023438 190.640625 18.394531 C 191.636719 18.957031 191.851562 19.476562 190.621094 20.039062 C 188.828125 20.835938 187.035156 21.636719 185.265625 22.5 C 176.082031 26.910156 167.445312 32.207031 159.347656 38.394531 C 158.789062 38.84375 158.15625 39.152344 157.460938 39.320312 C 156.761719 39.492188 156.058594 39.503906 155.355469 39.363281 C 149.351562 38.5 143.367188 39.191406 137.386719 39.839844 C 124.535156 41.242188 112.097656 44.261719 100.367188 49.839844 C 98.878906 50.550781 97.453125 51.976562 95.875 51.738281 C 94.28125 51.5 93.609375 49.488281 92.464844 48.328125 C 91.019531 46.828125 89.453125 45.472656 87.757812 44.265625 C 86.804688 43.625 86.847656 43.039062 87.800781 42.433594 Z M 18.519531 156.292969 C 17.71875 155.644531 16.917969 154.976562 16.078125 154.371094 C 15.363281 153.832031 14.824219 153.269531 15.082031 152.273438 C 15.945312 148.734375 16.703125 145.191406 17.652344 141.691406 C 27.871094 104.808594 47.824219 74.277344 77.519531 50.101562 C 80.824219 47.421875 80.066406 47.617188 82.917969 50.339844 C 84.457031 51.738281 85.878906 53.25 87.171875 54.878906 C 87.347656 55.0625 87.480469 55.273438 87.578125 55.507812 C 87.675781 55.746094 87.730469 55.988281 87.738281 56.242188 C 87.746094 56.496094 87.707031 56.746094 87.625 56.984375 C 87.542969 57.226562 87.421875 57.445312 87.261719 57.640625 C 79.855469 69.648438 74.585938 82.527344 71.449219 96.277344 C 70.804688 99.425781 70.328125 102.601562 70.027344 105.800781 C 69.980469 106.367188 69.792969 106.882812 69.46875 107.351562 C 69.148438 107.816406 68.726562 108.171875 68.214844 108.414062 C 48.539062 119.835938 33.527344 135.777344 22.472656 155.558594 C 20.917969 158.324219 20.957031 158.34375 18.519531 156.292969 Z M 24.390625 200.003906 C 23.9375 193.890625 23.550781 187.800781 23.679688 181.6875 C 23.679688 177.652344 23.699219 173.613281 23.679688 169.574219 C 23.710938 168.414062 24.042969 167.351562 24.671875 166.378906 C 35.296875 148.152344 48.6875 132.429688 65.921875 120.097656 C 68.296875 118.414062 70.628906 116.683594 72.832031 114.804688 C 74.019531 113.8125 74.949219 113.550781 76.417969 114.242188 C 88.039062 119.6875 99.589844 125.257812 110.601562 131.953125 C 113.667969 133.808594 114.621094 135.582031 114.46875 139.167969 C 113.996094 151.605469 115.226562 163.980469 116.71875 176.332031 C 118.074219 188.078125 120.109375 199.703125 122.832031 211.210938 C 123.007812 211.800781 123.019531 212.394531 122.859375 212.992188 C 122.699219 213.585938 122.394531 214.09375 121.945312 214.515625 C 110.324219 227.882812 98.734375 241.28125 87.175781 254.707031 C 83.632812 258.789062 84.34375 258.011719 80.175781 256.585938 C 64.164062 251.035156 48.925781 243.851562 34.457031 235.03125 C 33.339844 234.40625 32.605469 233.476562 32.253906 232.246094 C 30.269531 226.347656 28.664062 220.351562 27.4375 214.25 C 26.53125 209.484375 24.757812 204.90625 24.390625 200.003906 Z M 28.324219 262.566406 C 27.890625 261.796875 27.644531 260.972656 27.582031 260.089844 C 27.523438 259.210938 27.652344 258.359375 27.976562 257.535156 C 29.316406 253.820312 30.589844 250.105469 32.25 246.542969 C 32.550781 245.894531 32.832031 245.246094 33.609375 245.097656 C 34.453125 245.570312 35.164062 245.980469 35.878906 246.390625 C 48.425781 253.816406 61.722656 259.480469 75.765625 263.390625 C 77.949219 263.992188 80.582031 263.84375 82.203125 265.355469 C 83.714844 266.757812 84.339844 269.066406 85.398438 270.96875 C 94.402344 287.082031 105.765625 301.398438 118.742188 314.488281 C 119.085938 314.78125 119.382812 315.117188 119.632812 315.492188 C 119.878906 315.871094 120.070312 316.277344 120.203125 316.710938 C 120.332031 317.140625 120.402344 317.582031 120.40625 318.035156 C 120.414062 318.488281 120.355469 318.929688 120.234375 319.367188 C 118.554688 327.703125 116.238281 335.859375 113.28125 343.835938 C 112.15625 346.730469 112.503906 346.859375 109.433594 345.304688 C 102.113281 341.683594 95.078125 337.574219 88.328125 332.96875 C 81.578125 328.367188 75.183594 323.316406 69.140625 317.820312 C 63.097656 312.320312 57.464844 306.429688 52.246094 300.148438 C 47.027344 293.863281 42.269531 287.246094 37.972656 280.300781 C 34.441406 274.558594 31.226562 268.648438 28.324219 262.566406 Z M 28.324219 262.566406 " fill-opacity="1" fill-rule="nonzero"/></svg>