<svg xmlns="http://www.w3.org/2000/svg" xmlns:xlink="http://www.w3.org/1999/xlink" width="500" zoomAndPan="magnify" viewBox="0 0 375 374.999991" height="500" preserveAspectRatio="xMidYMid meet" version="1.0"><defs><clipPath id="5e4f69fa52"><path d="M 8.042969 0 L 367.292969 0 L 367.292969 375 L 8.042969 375 Z M 8.042969 0 " clip-rule="nonzero"/></clipPath></defs><g clip-path="url(#5e4f69fa52)"><path fill="#000000" d="M 48.136719 239.179688 C 48.136719 235.832031 50.851562 233.113281 54.207031 233.113281 L 185.925781 233.113281 C 189.28125 233.113281 192 235.832031 192 239.179688 C 192 242.53125 189.28125 245.25 185.925781 245.25 L 54.207031 245.25 C 50.851562 245.25 48.136719 242.535156 48.136719 239.179688 Z M 54.207031 187.226562 L 185.925781 187.226562 C 189.28125 187.226562 192 184.507812 192 181.160156 C 192 177.808594 189.28125 175.089844 185.925781 175.089844 L 54.207031 175.089844 C 50.851562 175.089844 48.136719 177.808594 48.136719 181.160156 C 48.136719 184.507812 50.851562 187.226562 54.207031 187.226562 Z M 54.207031 158.214844 L 185.925781 158.214844 C 189.28125 158.214844 192 155.5 192 152.148438 C 192 148.796875 189.28125 146.078125 185.925781 146.078125 L 54.207031 146.078125 C 50.851562 146.078125 48.136719 148.796875 48.136719 152.148438 C 48.136719 155.5 50.851562 158.214844 54.207031 158.214844 Z M 54.207031 216.238281 L 185.925781 216.238281 C 189.28125 216.238281 192 213.519531 192 210.171875 C 192 206.820312 189.28125 204.101562 185.925781 204.101562 L 54.207031 204.101562 C 50.851562 204.101562 48.136719 206.820312 48.136719 210.171875 C 48.136719 213.519531 50.851562 216.238281 54.207031 216.238281 Z M 367.273438 116.851562 L 367.273438 163.113281 C 367.273438 165.410156 365.972656 167.515625 363.914062 168.542969 C 361.855469 169.570312 359.394531 169.34375 357.554688 167.960938 L 346.03125 159.296875 L 334.503906 167.960938 C 333.429688 168.765625 332.148438 169.179688 330.855469 169.179688 C 329.929688 169.179688 329 168.96875 328.144531 168.542969 C 326.085938 167.515625 324.785156 165.410156 324.785156 163.113281 L 324.785156 116.847656 C 324.785156 114.679688 325.941406 112.679688 327.820312 111.59375 L 339.957031 104.589844 L 339.957031 49.984375 L 318.34375 55.722656 L 318.34375 123.136719 C 318.34375 126.066406 316.25 128.578125 313.363281 129.105469 C 297.996094 131.914062 285.324219 134.363281 275.140625 136.332031 C 272.722656 136.796875 270.414062 137.242188 268.203125 137.667969 L 268.203125 184.441406 L 282.613281 170.035156 C 286.199219 166.453125 290.972656 164.480469 296.054688 164.480469 C 301.140625 164.480469 305.914062 166.453125 309.496094 170.035156 L 313.15625 173.691406 C 316.738281 177.273438 318.710938 182.046875 318.710938 187.125 C 318.710938 192.207031 316.738281 196.980469 313.15625 200.5625 L 268.203125 245.492188 L 268.203125 363.484375 C 268.203125 369.882812 262.996094 375.085938 256.59375 375.085938 L 55.796875 375.085938 C 49.398438 375.085938 44.191406 369.882812 44.191406 363.484375 L 44.191406 338.972656 L 19.667969 338.972656 C 13.269531 338.972656 8.0625 333.765625 8.0625 327.371094 L 8.0625 95.03125 C 8.0625 93.402344 8.382812 91.859375 8.996094 90.441406 C 9.082031 90.226562 9.179688 90.019531 9.289062 89.820312 C 9.835938 88.738281 10.558594 87.730469 11.460938 86.828125 L 42.546875 55.757812 C 43.449219 54.855469 44.457031 54.132812 45.542969 53.585938 C 45.742188 53.476562 45.949219 53.378906 46.160156 53.292969 C 47.582031 52.679688 49.125 52.359375 50.753906 52.359375 L 112.996094 52.359375 L 88.4375 45.839844 C 85.777344 45.132812 83.925781 42.726562 83.925781 39.972656 C 83.925781 37.222656 85.777344 34.8125 88.4375 34.109375 L 220.445312 -0.941406 C 221.46875 -1.214844 222.542969 -1.214844 223.5625 -0.941406 L 355.574219 34.105469 C 358.234375 34.8125 360.085938 37.21875 360.085938 39.972656 C 360.085938 42.722656 358.234375 45.132812 355.574219 45.835938 L 352.101562 46.757812 L 352.101562 104.589844 L 364.238281 111.59375 C 366.117188 112.679688 367.273438 114.683594 367.273438 116.851562 Z M 28.789062 86.667969 L 42.390625 86.667969 L 42.390625 73.074219 Z M 20.203125 326.835938 L 219.929688 326.835938 L 219.929688 293.710938 C 219.226562 294.328125 218.398438 294.789062 217.488281 295.035156 L 187.5 303.066406 C 186.980469 303.207031 186.453125 303.273438 185.929688 303.273438 C 185.675781 303.273438 54.207031 303.273438 54.207031 303.273438 C 50.851562 303.273438 48.136719 300.554688 48.136719 297.203125 C 48.136719 293.855469 50.851562 291.136719 54.207031 291.136719 L 181.269531 291.136719 L 185.792969 274.261719 L 54.207031 274.261719 C 50.851562 274.261719 48.136719 271.542969 48.136719 268.191406 C 48.136719 264.84375 50.851562 262.125 54.207031 262.125 L 185.925781 262.125 C 187.226562 262.125 188.425781 262.535156 189.414062 263.230469 C 189.5 263.132812 189.578125 263.027344 189.667969 262.9375 L 219.929688 232.691406 L 219.929688 143.9375 C 207.179688 143.6875 193.832031 141.152344 168.867188 136.328125 C 158.804688 134.386719 146.304688 131.972656 131.183594 129.203125 L 54.207031 129.203125 C 50.851562 129.203125 48.136719 126.488281 48.136719 123.136719 C 48.136719 119.785156 50.851562 117.066406 54.207031 117.066406 L 125.667969 117.066406 L 125.667969 100.191406 L 92.910156 100.191406 C 89.554688 100.191406 86.839844 97.476562 86.839844 94.125 C 86.839844 90.773438 89.554688 88.054688 92.910156 88.054688 L 125.667969 88.054688 L 125.667969 64.496094 L 54.53125 64.496094 L 54.53125 89.972656 C 54.53125 94.84375 50.566406 98.804688 45.691406 98.804688 L 20.203125 98.804688 Z M 194.511719 288.621094 L 204.191406 286.03125 L 197.105469 278.949219 Z M 289.597656 206.945312 L 276.226562 193.582031 L 202.546875 267.226562 L 215.917969 280.589844 Z M 256.0625 257.628906 L 232.070312 281.609375 L 232.070312 327.371094 C 232.070312 333.765625 226.867188 338.972656 220.464844 338.972656 L 56.335938 338.972656 L 56.335938 362.949219 L 256.0625 362.949219 Z M 291.199219 178.617188 L 284.8125 185 L 298.183594 198.363281 L 304.570312 191.980469 C 305.859375 190.6875 306.570312 188.964844 306.570312 187.125 C 306.570312 185.285156 305.859375 183.5625 304.570312 182.273438 L 300.910156 178.617188 C 299.621094 177.328125 297.894531 176.617188 296.054688 176.617188 C 294.214844 176.617188 292.488281 177.328125 291.199219 178.617188 Z M 256.0625 139.953125 C 246.390625 141.71875 238.867188 142.898438 232.070312 143.5 L 232.070312 220.554688 L 256.0625 196.578125 Z M 306.199219 58.945312 L 223.5625 80.886719 C 223.050781 81.023438 222.527344 81.089844 222.003906 81.089844 C 221.480469 81.089844 220.957031 81.023438 220.445312 80.886719 L 137.808594 58.945312 L 137.808594 118.082031 C 151.015625 120.519531 162.082031 122.660156 171.171875 124.414062 C 222.003906 134.234375 222.003906 134.234375 272.835938 124.414062 C 281.925781 122.660156 292.992188 120.519531 306.199219 118.082031 Z M 330.367188 39.972656 L 222.003906 11.199219 L 113.640625 39.972656 L 222.003906 68.742188 Z M 355.132812 120.351562 L 346.03125 115.097656 L 336.925781 120.351562 L 336.925781 150.957031 L 342.378906 146.855469 C 344.542969 145.230469 347.515625 145.230469 349.675781 146.855469 L 355.132812 150.957031 Z M 355.132812 120.351562 " fill-opacity="1" fill-rule="nonzero"/></g></svg>