<svg xmlns="http://www.w3.org/2000/svg" xmlns:xlink="http://www.w3.org/1999/xlink" width="500" zoomAndPan="magnify" viewBox="0 0 375 374.999991" height="500" preserveAspectRatio="xMidYMid meet" version="1.0"><defs><clipPath id="0f39d19a82"><path d="M 218.613281 117 L 374.800781 117 L 374.800781 239.882812 L 218.613281 239.882812 Z M 218.613281 117 " clip-rule="nonzero"/></clipPath><clipPath id="d538e9dcbf"><path d="M 0 124.359375 L 218.414062 124.359375 L 218.414062 239.914062 L 0 239.914062 Z M 0 124.359375 " clip-rule="nonzero"/></clipPath></defs><g clip-path="url(#0f39d19a82)"><path fill="#000000" d="M 371.984375 127.023438 C 370.4375 127.023438 369.1875 128.277344 369.1875 129.835938 L 369.1875 234.257812 L 304.101562 234.257812 C 312.363281 227.902344 330.632812 217.304688 361.054688 216.632812 L 363.78125 216.574219 L 363.78125 117.496094 L 361.167969 117.324219 C 360.769531 117.296875 351.21875 116.710938 338.226562 120.066406 C 326.828125 123.007812 310.617188 129.679688 296.707031 144.6875 C 282.796875 129.679688 266.585938 123.007812 255.1875 120.066406 C 242.195312 116.710938 232.644531 117.296875 232.246094 117.324219 L 229.632812 117.496094 L 229.632812 216.574219 L 232.359375 216.632812 C 262.78125 217.304688 281.050781 227.902344 289.3125 234.257812 L 224.210938 234.257812 L 224.210938 129.835938 C 224.210938 128.277344 222.960938 127.023438 221.414062 127.023438 C 219.867188 127.023438 218.632812 128.277344 218.632812 129.835938 L 218.632812 239.882812 L 374.78125 239.882812 L 374.78125 129.835938 C 374.78125 128.277344 373.53125 127.023438 371.984375 127.023438 Z M 293.910156 230.6875 C 285.761719 224.015625 267.136719 212.417969 235.214844 211.105469 L 235.214844 122.894531 C 243.871094 123.050781 272.332031 125.492188 293.910156 149.929688 Z M 299.503906 149.929688 C 312.71875 134.960938 328.460938 128.421875 339.421875 125.550781 C 347.738281 123.378906 354.636719 122.9375 358.199219 122.878906 L 358.199219 211.089844 C 326.277344 212.40625 307.652344 224.003906 299.503906 230.671875 Z M 299.503906 149.929688 " fill-opacity="1" fill-rule="nonzero"/></g><path fill="#000000" d="M 287.296875 156.574219 C 260.964844 137.277344 244.910156 137.804688 244.242188 137.832031 C 242.707031 137.90625 241.53125 139.203125 241.585938 140.746094 C 241.644531 142.289062 242.933594 143.503906 244.484375 143.433594 C 244.640625 143.433594 259.488281 143.132812 284.003906 161.101562 C 284.5 161.457031 285.066406 161.644531 285.648438 161.644531 C 286.515625 161.644531 287.367188 161.242188 287.90625 160.484375 C 288.816406 159.242188 288.53125 157.488281 287.296875 156.574219 Z M 287.296875 156.574219 " fill-opacity="1" fill-rule="nonzero"/><path fill="#000000" d="M 287.296875 172.226562 C 260.964844 152.917969 244.910156 153.445312 244.242188 153.488281 C 242.707031 153.558594 241.53125 154.859375 241.585938 156.402344 C 241.644531 157.945312 242.949219 159.15625 244.484375 159.085938 C 244.625 159.085938 259.488281 158.785156 284.003906 176.753906 C 284.5 177.113281 285.066406 177.296875 285.648438 177.296875 C 286.515625 177.296875 287.367188 176.898438 287.90625 176.140625 C 288.816406 174.898438 288.53125 173.140625 287.296875 172.226562 Z M 287.296875 172.226562 " fill-opacity="1" fill-rule="nonzero"/><path fill="#000000" d="M 287.296875 187.878906 C 260.964844 168.570312 244.910156 169.097656 244.242188 169.128906 C 242.707031 169.199219 241.53125 170.5 241.585938 172.042969 C 241.644531 173.582031 242.933594 174.785156 244.484375 174.726562 C 244.640625 174.726562 259.488281 174.425781 284.003906 192.394531 C 284.5 192.75 285.066406 192.9375 285.648438 192.9375 C 286.515625 192.9375 287.367188 192.535156 287.90625 191.78125 C 288.816406 190.539062 288.53125 188.78125 287.296875 187.878906 Z M 287.296875 187.878906 " fill-opacity="1" fill-rule="nonzero"/><path fill="#000000" d="M 287.296875 203.519531 C 260.964844 184.222656 244.910156 184.753906 244.242188 184.78125 C 242.707031 184.851562 241.53125 186.152344 241.585938 187.695312 C 241.644531 189.238281 242.949219 190.453125 244.484375 190.378906 C 244.625 190.378906 259.488281 190.082031 284.003906 208.046875 C 284.5 208.40625 285.066406 208.589844 285.648438 208.589844 C 286.515625 208.589844 287.367188 208.191406 287.90625 207.433594 C 288.816406 206.191406 288.53125 204.433594 287.296875 203.519531 Z M 287.296875 203.519531 " fill-opacity="1" fill-rule="nonzero"/><path fill="#000000" d="M 349.171875 137.832031 C 348.503906 137.804688 332.449219 137.277344 306.117188 156.574219 C 304.871094 157.488281 304.601562 159.242188 305.507812 160.5 C 306.046875 161.257812 306.898438 161.65625 307.765625 161.65625 C 308.332031 161.65625 308.914062 161.484375 309.410156 161.113281 C 333.855469 143.191406 348.691406 143.433594 348.929688 143.445312 C 350.464844 143.503906 351.757812 142.320312 351.839844 140.777344 C 351.914062 139.21875 350.71875 137.90625 349.171875 137.832031 Z M 349.171875 137.832031 " fill-opacity="1" fill-rule="nonzero"/><path fill="#000000" d="M 349.171875 153.488281 C 348.503906 153.460938 332.449219 152.929688 306.117188 172.226562 C 304.871094 173.140625 304.601562 174.898438 305.507812 176.15625 C 306.046875 176.910156 306.898438 177.3125 307.765625 177.3125 C 308.332031 177.3125 308.914062 177.140625 309.410156 176.769531 C 333.855469 158.859375 348.691406 159.085938 348.929688 159.101562 C 350.464844 159.171875 351.757812 157.972656 351.839844 156.429688 C 351.914062 154.875 350.71875 153.558594 349.171875 153.488281 Z M 349.171875 153.488281 " fill-opacity="1" fill-rule="nonzero"/><path fill="#000000" d="M 349.171875 169.128906 C 348.503906 169.097656 332.449219 168.570312 306.117188 187.867188 C 304.871094 188.78125 304.601562 190.539062 305.507812 191.792969 C 306.046875 192.550781 306.898438 192.949219 307.765625 192.949219 C 308.332031 192.949219 308.914062 192.78125 309.410156 192.410156 C 333.855469 174.496094 348.691406 174.726562 348.929688 174.742188 C 350.464844 174.796875 351.757812 173.613281 351.839844 172.070312 C 351.914062 170.511719 350.71875 169.199219 349.171875 169.128906 Z M 349.171875 169.128906 " fill-opacity="1" fill-rule="nonzero"/><path fill="#000000" d="M 349.171875 184.78125 C 348.503906 184.753906 332.449219 184.222656 306.117188 203.519531 C 304.871094 204.433594 304.601562 206.191406 305.507812 207.449219 C 306.046875 208.207031 306.898438 208.605469 307.765625 208.605469 C 308.332031 208.605469 308.914062 208.433594 309.410156 208.0625 C 333.855469 190.152344 348.691406 190.378906 348.929688 190.394531 C 350.464844 190.453125 351.757812 189.265625 351.839844 187.722656 C 351.914062 186.167969 350.71875 184.851562 349.171875 184.78125 Z M 349.171875 184.78125 " fill-opacity="1" fill-rule="nonzero"/><g clip-path="url(#d538e9dcbf)"><path fill="#000000" d="M 228.332031 182.679688 C 225.679688 182.679688 223.410156 184.328125 222.492188 186.652344 L 173.558594 186.652344 L 168.152344 166.207031 C 167.683594 164.433594 166.15625 163.261719 164.328125 163.261719 C 164.300781 163.261719 164.273438 163.261719 164.242188 163.261719 C 162.382812 163.296875 160.859375 164.542969 160.453125 166.363281 L 149.003906 217.761719 L 136.285156 164.574219 C 135.847656 162.75 134.238281 161.503906 132.363281 161.535156 C 130.488281 161.566406 128.921875 162.871094 128.546875 164.710938 L 121.695312 198.476562 L 118.730469 189.394531 C 118.195312 187.761719 116.683594 186.664062 114.964844 186.664062 L 90.496094 186.664062 L 81.050781 127.6875 C 80.683594 125.71875 78.972656 124.359375 76.96875 124.449219 C 74.96875 124.542969 73.386719 126.054688 73.207031 128.050781 L 62.558594 228.632812 L 49.074219 165.488281 C 48.6875 163.660156 47.109375 162.371094 45.242188 162.355469 C 45.230469 162.355469 45.210938 162.355469 45.199219 162.355469 C 43.355469 162.355469 41.769531 163.601562 41.34375 165.398438 L 36.308594 186.652344 L -6.921875 186.652344 C -7.84375 184.328125 -10.109375 182.679688 -12.761719 182.679688 C -16.234375 182.679688 -19.042969 185.492188 -19.042969 188.964844 C -19.042969 192.433594 -16.234375 195.246094 -12.761719 195.246094 C -10.242188 195.246094 -8.070312 193.761719 -7.070312 191.621094 L 37.101562 191.621094 C 38.953125 191.621094 40.535156 190.363281 40.960938 188.570312 L 45.148438 170.894531 L 59.089844 236.140625 C 59.484375 237.992188 61.085938 239.277344 62.953125 239.277344 C 63.035156 239.277344 63.113281 239.277344 63.195312 239.273438 C 65.167969 239.15625 66.726562 237.644531 66.90625 235.679688 L 77.492188 135.777344 L 85.765625 188.378906 C 86.109375 190.253906 87.746094 191.621094 89.660156 191.621094 L 114.238281 191.621094 L 118.15625 203.632812 C 118.726562 205.371094 120.335938 206.46875 122.152344 206.355469 C 123.976562 206.25 125.445312 204.976562 125.808594 203.1875 L 132.511719 170.148438 L 145.1875 223.144531 C 145.617188 224.9375 147.195312 226.183594 149.039062 226.183594 C 149.050781 226.183594 149.066406 226.183594 149.070312 226.183594 C 150.925781 226.171875 152.503906 224.894531 152.90625 223.082031 L 164.402344 171.464844 L 168.949219 188.667969 C 169.410156 190.40625 170.980469 191.613281 172.78125 191.613281 L 222.636719 191.613281 C 223.632812 193.753906 225.808594 195.238281 228.324219 195.238281 C 231.796875 195.238281 234.609375 192.429688 234.609375 188.957031 C 234.613281 185.492188 231.804688 182.679688 228.332031 182.679688 Z M 228.332031 182.679688 " fill-opacity="1" fill-rule="nonzero"/></g></svg>