<svg xmlns="http://www.w3.org/2000/svg" xmlns:xlink="http://www.w3.org/1999/xlink" width="500" zoomAndPan="magnify" viewBox="0 0 375 374.999991" height="500" preserveAspectRatio="xMidYMid meet" version="1.0"><defs><clipPath id="f8175713bb"><path d="M 0 37.5 L 375 37.5 L 375 312.75 L 0 312.75 Z M 0 37.5 " clip-rule="nonzero"/></clipPath></defs><g clip-path="url(#f8175713bb)"><path fill="#1a1a1a" d="M 375 223.59375 C 375 218.527344 372.183594 213.984375 367.644531 211.742188 L 330.894531 193.546875 L 329.585938 183.898438 C 333.90625 178.664062 337.65625 172.265625 340.382812 165.375 C 344.742188 164.242188 347.96875 160.273438 347.96875 155.5625 L 347.96875 141.679688 C 347.96875 138.851562 346.773438 136.246094 344.84375 134.386719 L 344.84375 133.34375 C 344.84375 111.769531 327.296875 94.21875 305.734375 94.21875 L 300.492188 94.21875 C 278.925781 94.21875 261.382812 111.769531 261.382812 133.34375 L 261.382812 134.386719 C 259.449219 136.246094 258.253906 138.851562 258.253906 141.679688 L 258.253906 155.566406 C 258.253906 160.277344 261.480469 164.242188 265.839844 165.375 C 268.570312 172.265625 272.316406 178.664062 276.640625 183.898438 L 275.148438 194.886719 C 274.191406 194.074219 273.132812 193.359375 271.96875 192.785156 L 222.417969 168.253906 L 220.421875 153.535156 C 226.738281 146.078125 231.84375 137.050781 235.332031 127.96875 C 240.722656 127.058594 244.84375 122.355469 244.84375 116.710938 L 244.84375 98.347656 C 244.84375 94.875 243.242188 91.699219 240.707031 89.582031 L 240.707031 87.320312 C 240.707031 59.886719 218.394531 37.566406 190.96875 37.566406 L 184.035156 37.566406 C 156.609375 37.566406 134.296875 59.886719 134.296875 87.320312 L 134.296875 89.582031 C 131.761719 91.699219 130.160156 94.875 130.160156 98.347656 L 130.160156 116.714844 C 130.160156 122.359375 134.277344 127.0625 139.671875 127.96875 C 143.160156 137.050781 148.265625 146.078125 154.582031 153.535156 L 152.585938 168.253906 L 103.035156 192.785156 C 101.871094 193.363281 100.808594 194.074219 99.851562 194.886719 L 98.363281 183.902344 C 102.683594 178.664062 106.433594 172.269531 109.160156 165.375 C 113.519531 164.242188 116.75 160.273438 116.75 155.5625 L 116.75 141.675781 C 116.75 138.851562 115.554688 136.246094 113.621094 134.386719 L 113.621094 133.339844 C 113.621094 111.769531 96.078125 94.21875 74.511719 94.21875 L 69.269531 94.21875 C 47.703125 94.21875 30.160156 111.769531 30.160156 133.339844 L 30.160156 134.386719 C 28.226562 136.246094 27.03125 138.851562 27.03125 141.675781 L 27.03125 155.566406 C 27.03125 160.273438 30.261719 164.242188 34.621094 165.371094 C 37.347656 172.265625 41.09375 178.664062 45.417969 183.898438 L 44.109375 193.546875 L 7.359375 211.742188 C 2.816406 213.988281 0 218.527344 0 223.59375 L 0 264.960938 C 0 265.011719 0.0117188 265.058594 0.015625 265.105469 C 0.0195312 265.335938 0.0507812 265.5625 0.0820312 265.789062 C 0.109375 265.96875 0.125 266.152344 0.164062 266.328125 C 0.210938 266.523438 0.28125 266.710938 0.34375 266.902344 C 0.40625 267.09375 0.460938 267.285156 0.542969 267.464844 C 0.621094 267.640625 0.722656 267.804688 0.816406 267.972656 C 0.917969 268.144531 1.007812 268.324219 1.121094 268.488281 C 1.238281 268.652344 1.375 268.796875 1.503906 268.953125 C 1.628906 269.097656 1.746094 269.246094 1.882812 269.378906 C 2.027344 269.515625 2.1875 269.632812 2.34375 269.757812 C 2.5 269.882812 2.65625 270.011719 2.824219 270.125 C 2.972656 270.21875 3.136719 270.296875 3.296875 270.378906 C 3.5 270.488281 3.707031 270.597656 3.925781 270.679688 C 3.96875 270.699219 4.007812 270.726562 4.054688 270.742188 L 38.515625 283.242188 C 39.210938 283.492188 39.917969 283.609375 40.613281 283.609375 C 43.128906 283.609375 45.488281 282.054688 46.394531 279.554688 C 47.554688 276.359375 45.902344 272.828125 42.710938 271.671875 L 12.300781 260.644531 L 12.300781 223.59375 C 12.300781 223.242188 12.496094 222.925781 12.8125 222.769531 L 47.679688 205.507812 L 67.660156 223.125 L 71.921875 227.320312 L 76.132812 223.105469 L 94.410156 206.996094 L 94.410156 261.386719 C 94.410156 261.4375 94.421875 261.484375 94.425781 261.535156 C 94.429688 261.765625 94.460938 261.988281 94.492188 262.214844 C 94.515625 262.398438 94.535156 262.582031 94.574219 262.753906 C 94.621094 262.953125 94.6875 263.136719 94.75 263.328125 C 94.816406 263.519531 94.871094 263.710938 94.953125 263.894531 C 95.03125 264.066406 95.132812 264.226562 95.222656 264.394531 C 95.324219 264.570312 95.417969 264.75 95.53125 264.914062 C 95.644531 265.078125 95.78125 265.222656 95.910156 265.375 C 96.039062 265.523438 96.15625 265.671875 96.296875 265.808594 C 96.4375 265.945312 96.597656 266.0625 96.75 266.183594 C 96.910156 266.3125 97.066406 266.441406 97.238281 266.550781 C 97.386719 266.648438 97.546875 266.722656 97.703125 266.804688 C 97.910156 266.914062 98.117188 267.023438 98.335938 267.109375 C 98.378906 267.125 98.417969 267.15625 98.464844 267.171875 L 144.042969 283.699219 C 144.734375 283.953125 145.441406 284.070312 146.136719 284.070312 C 148.652344 284.070312 151.015625 282.515625 151.921875 280.011719 C 153.078125 276.820312 151.429688 273.289062 148.234375 272.132812 L 106.710938 257.074219 L 106.710938 206.679688 C 106.710938 205.453125 107.394531 204.355469 108.488281 203.8125 L 155.796875 180.390625 L 172.613281 195.21875 L 157.59375 282.871094 L 157.558594 283.109375 C 157.203125 285.789062 158.179688 288.484375 160.164062 290.316406 L 182.011719 310.5 C 183.550781 311.921875 185.523438 312.632812 187.5 312.632812 C 189.472656 312.632812 191.449219 311.921875 192.988281 310.5 L 214.835938 290.316406 C 216.824219 288.480469 217.796875 285.78125 217.4375 283.097656 L 202.386719 195.222656 L 219.203125 180.394531 L 266.507812 203.8125 C 267.605469 204.355469 268.289062 205.453125 268.289062 206.679688 L 268.289062 257.074219 L 226.761719 272.132812 C 223.570312 273.289062 221.917969 276.820312 223.078125 280.011719 C 223.984375 282.515625 226.34375 284.070312 228.859375 284.070312 C 229.558594 284.070312 230.265625 283.953125 230.957031 283.699219 L 276.535156 267.171875 C 276.582031 267.15625 276.617188 267.125 276.664062 267.109375 C 276.882812 267.023438 277.089844 266.914062 277.296875 266.804688 C 277.453125 266.722656 277.613281 266.648438 277.761719 266.554688 C 277.933594 266.441406 278.089844 266.308594 278.253906 266.179688 C 278.40625 266.058594 278.5625 265.945312 278.703125 265.808594 C 278.84375 265.671875 278.964844 265.519531 279.09375 265.367188 C 279.21875 265.21875 279.351562 265.078125 279.464844 264.917969 C 279.582031 264.75 279.679688 264.566406 279.777344 264.386719 C 279.871094 264.222656 279.96875 264.066406 280.042969 263.894531 C 280.128906 263.710938 280.183594 263.515625 280.25 263.320312 C 280.3125 263.132812 280.378906 262.949219 280.421875 262.757812 C 280.464844 262.578125 280.480469 262.394531 280.503906 262.210938 C 280.535156 261.988281 280.566406 261.765625 280.574219 261.539062 C 280.574219 261.488281 280.589844 261.4375 280.589844 261.386719 L 280.589844 206.992188 L 298.804688 223.054688 L 300.445312 224.785156 L 303.109375 224.785156 L 305.808594 224.773438 L 307.429688 223.039062 L 327.320312 205.507812 L 362.1875 222.769531 C 362.5 222.925781 362.695312 223.238281 362.695312 223.589844 L 362.695312 260.644531 L 332.289062 271.671875 C 329.09375 272.828125 327.445312 276.359375 328.601562 279.554688 C 329.507812 282.054688 331.871094 283.609375 334.386719 283.609375 C 335.082031 283.609375 335.789062 283.492188 336.480469 283.242188 L 370.945312 270.742188 C 370.988281 270.726562 371.027344 270.699219 371.074219 270.679688 C 371.292969 270.59375 371.5 270.488281 371.707031 270.375 C 371.863281 270.292969 372.023438 270.21875 372.171875 270.125 C 372.34375 270.011719 372.5 269.878906 372.660156 269.75 C 372.816406 269.628906 372.972656 269.515625 373.109375 269.378906 C 373.253906 269.242188 373.375 269.089844 373.503906 268.941406 C 373.628906 268.789062 373.761719 268.648438 373.875 268.488281 C 373.992188 268.320312 374.085938 268.136719 374.1875 267.957031 C 374.277344 267.792969 374.378906 267.636719 374.453125 267.46875 C 374.535156 267.28125 374.59375 267.085938 374.660156 266.890625 C 374.71875 266.703125 374.789062 266.523438 374.832031 266.328125 C 374.875 266.152344 374.890625 265.964844 374.914062 265.78125 C 374.945312 265.558594 374.976562 265.335938 374.984375 265.109375 C 374.984375 265.058594 375 265.011719 375 264.960938 Z M 39.332031 153.664062 L 39.332031 143.246094 C 41.644531 142.089844 43.066406 139.542969 42.667969 136.84375 C 42.625 136.554688 42.539062 136.285156 42.460938 136.015625 L 42.460938 133.34375 C 42.460938 118.554688 54.484375 106.523438 69.265625 106.523438 L 74.507812 106.523438 C 89.289062 106.523438 101.316406 118.554688 101.316406 133.34375 L 101.316406 136.015625 C 101.238281 136.285156 101.148438 136.554688 101.109375 136.84375 C 100.710938 139.542969 102.128906 142.089844 104.445312 143.246094 L 104.445312 153.664062 C 101.671875 154.375 99.351562 156.417969 98.351562 159.183594 C 93.636719 172.175781 83.34375 186.160156 71.886719 186.160156 C 60.433594 186.160156 50.140625 172.175781 45.425781 159.1875 C 44.421875 156.417969 42.105469 154.375 39.332031 153.664062 Z M 71.886719 210.445312 L 56.117188 196.542969 L 56.484375 193.824219 C 61.429688 196.878906 66.640625 198.46875 71.886719 198.46875 C 77.136719 198.46875 82.34375 196.878906 87.292969 193.824219 L 87.660156 196.542969 Z M 187.5 191.941406 L 164.53125 171.691406 L 165.597656 163.84375 C 172.207031 168.574219 179.597656 171.46875 187.5 171.46875 C 195.40625 171.46875 202.792969 168.574219 209.402344 163.84375 L 210.46875 171.695312 Z M 150.640625 122.175781 C 149.363281 118.65625 146.144531 116.207031 142.460938 115.863281 L 142.460938 99.066406 C 145.40625 98.246094 147.351562 95.34375 146.894531 92.238281 C 146.832031 91.828125 146.730469 91.4375 146.597656 91.058594 L 146.597656 87.320312 C 146.597656 66.671875 163.390625 49.871094 184.035156 49.871094 L 190.964844 49.871094 C 211.609375 49.871094 228.40625 66.671875 228.40625 87.320312 L 228.40625 91.058594 C 228.40625 91.058594 228.40625 91.058594 228.40625 91.0625 C 228.269531 91.4375 228.167969 91.832031 228.109375 92.242188 C 227.652344 95.34375 229.59375 98.25 232.542969 99.066406 L 232.542969 115.863281 C 228.859375 116.203125 225.640625 118.65625 224.363281 122.175781 C 217.898438 139.988281 203.605469 159.160156 187.5 159.160156 C 171.394531 159.160156 157.105469 139.988281 150.640625 122.175781 Z M 187.5 298.820312 L 170.097656 282.742188 L 183.457031 204.785156 L 187.546875 208.597656 L 191.546875 204.789062 L 204.902344 282.742188 Z M 270.558594 153.664062 L 270.558594 143.246094 C 272.871094 142.089844 274.289062 139.542969 273.890625 136.84375 C 273.847656 136.554688 273.761719 136.289062 273.683594 136.015625 L 273.683594 133.339844 C 273.683594 118.554688 285.710938 106.523438 300.492188 106.523438 L 305.734375 106.523438 C 320.515625 106.523438 332.542969 118.554688 332.542969 133.339844 L 332.542969 136.015625 C 332.460938 136.289062 332.375 136.554688 332.332031 136.84375 C 331.933594 139.542969 333.355469 142.089844 335.667969 143.246094 L 335.667969 153.664062 C 332.898438 154.375 330.578125 156.417969 329.574219 159.183594 C 324.859375 172.175781 314.566406 186.160156 303.113281 186.160156 C 291.65625 186.160156 281.367188 172.175781 276.648438 159.183594 C 275.644531 156.417969 273.328125 154.375 270.558594 153.664062 Z M 303.113281 210.445312 L 287.339844 196.542969 L 287.710938 193.824219 C 292.65625 196.878906 297.863281 198.46875 303.113281 198.46875 C 308.363281 198.46875 313.570312 196.878906 318.515625 193.824219 L 318.886719 196.542969 Z M 303.113281 210.445312 " fill-opacity="1" fill-rule="nonzero"/></g></svg>