<svg xmlns="http://www.w3.org/2000/svg" xmlns:xlink="http://www.w3.org/1999/xlink" width="500" zoomAndPan="magnify" viewBox="0 0 375 374.999991" height="500" preserveAspectRatio="xMidYMid meet" version="1.0"><defs><clipPath id="b450a39b42"><path d="M 86 5.15625 L 289 5.15625 L 289 208 L 86 208 Z M 86 5.15625 " clip-rule="nonzero"/></clipPath><clipPath id="1ed8ccf7aa"><path d="M 0 341 L 50 341 L 50 369.65625 L 0 369.65625 Z M 0 341 " clip-rule="nonzero"/></clipPath><clipPath id="dcb84e1cc1"><path d="M 325 341 L 375 341 L 375 369.65625 L 325 369.65625 Z M 325 341 " clip-rule="nonzero"/></clipPath></defs><g clip-path="url(#b450a39b42)"><path fill="#000000" d="M 86.269531 5.246094 L 288.730469 5.246094 L 288.730469 207.601562 L 86.269531 207.601562 Z M 108.519531 27.484375 L 266.480469 27.484375 L 266.480469 185.367188 L 108.519531 185.367188 Z M 108.519531 27.484375 " fill-opacity="1" fill-rule="evenodd"/></g><path fill="#000000" d="M 203.964844 55.117188 C 204.304688 55.117188 204.640625 55.132812 204.976562 55.164062 C 204.792969 54.398438 204.695312 53.601562 204.695312 52.777344 C 204.695312 47.117188 209.285156 42.527344 214.949219 42.527344 C 219.335938 42.527344 223.078125 45.28125 224.542969 49.148438 C 226.011719 45.28125 229.75 42.53125 234.136719 42.53125 C 239.800781 42.53125 244.390625 47.121094 244.390625 52.78125 C 244.390625 53.929688 244.203125 55.03125 243.851562 56.0625 C 247.359375 57.691406 249.792969 61.246094 249.792969 65.367188 C 249.792969 71.027344 245.203125 75.617188 239.539062 75.617188 C 228.078125 75.617188 216.328125 75.617188 203.964844 75.617188 C 198.300781 75.617188 193.710938 71.027344 193.710938 65.367188 C 193.710938 59.703125 198.300781 55.117188 203.964844 55.117188 Z M 203.964844 55.117188 " fill-opacity="1" fill-rule="evenodd"/><path fill="#000000" d="M 164.140625 68.101562 C 164.140625 69.125 164.039062 70.136719 163.839844 71.136719 C 163.640625 72.140625 163.34375 73.113281 162.953125 74.058594 C 162.5625 75.003906 162.082031 75.898438 161.515625 76.75 C 160.945312 77.597656 160.300781 78.386719 159.578125 79.109375 C 158.855469 79.832031 158.070312 80.476562 157.21875 81.042969 C 156.367188 81.613281 155.46875 82.089844 154.527344 82.480469 C 153.582031 82.875 152.605469 83.167969 151.605469 83.367188 C 150.601562 83.566406 149.589844 83.667969 148.566406 83.667969 C 147.542969 83.667969 146.53125 83.566406 145.527344 83.367188 C 144.523438 83.167969 143.550781 82.875 142.605469 82.480469 C 141.660156 82.089844 140.765625 81.613281 139.914062 81.042969 C 139.0625 80.476562 138.277344 79.832031 137.554688 79.109375 C 136.832031 78.386719 136.183594 77.597656 135.617188 76.75 C 135.046875 75.898438 134.570312 75.003906 134.175781 74.058594 C 133.785156 73.113281 133.492188 72.140625 133.292969 71.136719 C 133.09375 70.136719 132.992188 69.125 132.992188 68.101562 C 132.992188 67.078125 133.09375 66.066406 133.292969 65.0625 C 133.492188 64.0625 133.785156 63.089844 134.175781 62.144531 C 134.570312 61.199219 135.046875 60.304688 135.617188 59.453125 C 136.183594 58.601562 136.832031 57.816406 137.554688 57.09375 C 138.277344 56.371094 139.0625 55.726562 139.914062 55.160156 C 140.765625 54.589844 141.660156 54.113281 142.605469 53.71875 C 143.550781 53.328125 144.523438 53.035156 145.527344 52.835938 C 146.53125 52.636719 147.542969 52.535156 148.566406 52.535156 C 149.589844 52.535156 150.601562 52.636719 151.605469 52.835938 C 152.605469 53.035156 153.582031 53.328125 154.527344 53.71875 C 155.46875 54.113281 156.367188 54.589844 157.21875 55.160156 C 158.070312 55.726562 158.855469 56.371094 159.578125 57.09375 C 160.300781 57.816406 160.945312 58.601562 161.515625 59.453125 C 162.082031 60.304688 162.5625 61.199219 162.953125 62.144531 C 163.34375 63.089844 163.640625 64.0625 163.839844 65.0625 C 164.039062 66.066406 164.140625 67.078125 164.140625 68.101562 Z M 164.140625 68.101562 " fill-opacity="1" fill-rule="nonzero"/><g clip-path="url(#1ed8ccf7aa)"><path fill="#000000" d="M 0 341.675781 L 49.867188 341.675781 L 49.867188 369.585938 L 0 369.585938 Z M 0 341.675781 " fill-opacity="1" fill-rule="evenodd"/></g><path fill="#000000" d="M 44.878906 157.261719 C 44.878906 157.914062 44.847656 158.566406 44.785156 159.21875 C 44.71875 159.867188 44.625 160.511719 44.496094 161.152344 C 44.371094 161.792969 44.210938 162.425781 44.019531 163.050781 C 43.832031 163.675781 43.613281 164.289062 43.363281 164.890625 C 43.113281 165.496094 42.832031 166.085938 42.523438 166.660156 C 42.21875 167.238281 41.882812 167.796875 41.519531 168.339844 C 41.15625 168.882812 40.765625 169.40625 40.351562 169.910156 C 39.9375 170.414062 39.5 170.898438 39.039062 171.359375 C 38.574219 171.820312 38.09375 172.261719 37.585938 172.675781 C 37.082031 173.089844 36.558594 173.476562 36.015625 173.839844 C 35.472656 174.203125 34.914062 174.539062 34.335938 174.84375 C 33.761719 175.152344 33.171875 175.433594 32.566406 175.683594 C 31.964844 175.933594 31.347656 176.152344 30.722656 176.339844 C 30.097656 176.53125 29.464844 176.6875 28.824219 176.816406 C 28.183594 176.945312 27.539062 177.039062 26.886719 177.101562 C 26.238281 177.167969 25.585938 177.199219 24.933594 177.199219 C 24.28125 177.199219 23.628906 177.167969 22.976562 177.101562 C 22.328125 177.039062 21.683594 176.945312 21.042969 176.816406 C 20.402344 176.6875 19.769531 176.53125 19.144531 176.339844 C 18.519531 176.152344 17.902344 175.933594 17.300781 175.683594 C 16.695312 175.433594 16.105469 175.152344 15.53125 174.84375 C 14.953125 174.539062 14.394531 174.203125 13.851562 173.839844 C 13.308594 173.476562 12.785156 173.089844 12.277344 172.675781 C 11.773438 172.261719 11.289062 171.820312 10.828125 171.359375 C 10.367188 170.898438 9.929688 170.414062 9.515625 169.910156 C 9.101562 169.40625 8.710938 168.882812 8.347656 168.339844 C 7.984375 167.796875 7.648438 167.238281 7.339844 166.660156 C 7.035156 166.085938 6.753906 165.496094 6.503906 164.890625 C 6.253906 164.289062 6.035156 163.675781 5.84375 163.050781 C 5.65625 162.425781 5.496094 161.792969 5.371094 161.152344 C 5.242188 160.511719 5.148438 159.867188 5.082031 159.21875 C 5.019531 158.566406 4.988281 157.914062 4.988281 157.261719 C 4.988281 156.609375 5.019531 155.957031 5.082031 155.308594 C 5.148438 154.660156 5.242188 154.015625 5.371094 153.375 C 5.496094 152.734375 5.65625 152.101562 5.84375 151.476562 C 6.035156 150.851562 6.253906 150.238281 6.503906 149.632812 C 6.753906 149.03125 7.035156 148.441406 7.339844 147.863281 C 7.648438 147.289062 7.984375 146.730469 8.347656 146.1875 C 8.710938 145.644531 9.101562 145.121094 9.515625 144.613281 C 9.929688 144.109375 10.367188 143.628906 10.828125 143.164062 C 11.289062 142.703125 11.773438 142.265625 12.277344 141.851562 C 12.785156 141.4375 13.308594 141.050781 13.851562 140.6875 C 14.394531 140.324219 14.953125 139.988281 15.53125 139.679688 C 16.105469 139.371094 16.695312 139.09375 17.300781 138.84375 C 17.902344 138.59375 18.519531 138.375 19.144531 138.183594 C 19.769531 137.996094 20.402344 137.835938 21.042969 137.710938 C 21.683594 137.582031 22.328125 137.484375 22.976562 137.421875 C 23.628906 137.359375 24.28125 137.328125 24.933594 137.324219 C 25.585938 137.328125 26.238281 137.359375 26.886719 137.421875 C 27.539062 137.484375 28.183594 137.582031 28.824219 137.710938 C 29.464844 137.835938 30.097656 137.996094 30.722656 138.183594 C 31.347656 138.375 31.964844 138.59375 32.566406 138.84375 C 33.171875 139.09375 33.761719 139.371094 34.335938 139.679688 C 34.914062 139.988281 35.472656 140.324219 36.015625 140.6875 C 36.558594 141.050781 37.082031 141.4375 37.585938 141.851562 C 38.09375 142.265625 38.574219 142.703125 39.039062 143.164062 C 39.5 143.628906 39.9375 144.109375 40.351562 144.613281 C 40.765625 145.121094 41.15625 145.644531 41.519531 146.1875 C 41.882812 146.730469 42.21875 147.289062 42.523438 147.863281 C 42.832031 148.441406 43.113281 149.03125 43.363281 149.632812 C 43.613281 150.238281 43.832031 150.851562 44.019531 151.476562 C 44.210938 152.101562 44.371094 152.734375 44.496094 153.375 C 44.625 154.015625 44.71875 154.660156 44.785156 155.308594 C 44.847656 155.957031 44.878906 156.609375 44.878906 157.261719 Z M 44.878906 157.261719 " fill-opacity="1" fill-rule="nonzero"/><g clip-path="url(#dcb84e1cc1)"><path fill="#000000" d="M 325.132812 341.675781 L 375 341.675781 L 375 369.585938 L 325.132812 369.585938 Z M 325.132812 341.675781 " fill-opacity="1" fill-rule="evenodd"/></g><path fill="#000000" d="M 370.011719 157.261719 C 370.011719 157.914062 369.980469 158.566406 369.917969 159.21875 C 369.851562 159.867188 369.757812 160.511719 369.628906 161.152344 C 369.503906 161.792969 369.34375 162.425781 369.15625 163.050781 C 368.964844 163.675781 368.746094 164.289062 368.496094 164.890625 C 368.246094 165.496094 367.964844 166.085938 367.65625 166.660156 C 367.351562 167.238281 367.015625 167.796875 366.652344 168.339844 C 366.289062 168.882812 365.898438 169.40625 365.484375 169.910156 C 365.070312 170.414062 364.632812 170.898438 364.171875 171.359375 C 363.710938 171.820312 363.226562 172.261719 362.722656 172.675781 C 362.214844 173.089844 361.691406 173.476562 361.148438 173.839844 C 360.605469 174.203125 360.046875 174.539062 359.46875 174.84375 C 358.894531 175.152344 358.304688 175.433594 357.699219 175.683594 C 357.097656 175.933594 356.480469 176.152344 355.855469 176.339844 C 355.230469 176.53125 354.597656 176.6875 353.957031 176.816406 C 353.316406 176.945312 352.671875 177.039062 352.023438 177.101562 C 351.371094 177.167969 350.71875 177.199219 350.066406 177.199219 C 349.414062 177.199219 348.761719 177.167969 348.113281 177.101562 C 347.460938 177.039062 346.816406 176.945312 346.175781 176.816406 C 345.535156 176.6875 344.902344 176.53125 344.277344 176.339844 C 343.652344 176.152344 343.035156 175.933594 342.433594 175.683594 C 341.828125 175.433594 341.238281 175.152344 340.664062 174.84375 C 340.085938 174.539062 339.527344 174.203125 338.984375 173.839844 C 338.441406 173.476562 337.917969 173.089844 337.414062 172.675781 C 336.90625 172.261719 336.425781 171.820312 335.960938 171.359375 C 335.5 170.898438 335.0625 170.414062 334.648438 169.910156 C 334.234375 169.40625 333.84375 168.882812 333.480469 168.339844 C 333.117188 167.796875 332.78125 167.238281 332.476562 166.660156 C 332.167969 166.085938 331.886719 165.496094 331.636719 164.890625 C 331.386719 164.289062 331.167969 163.675781 330.980469 163.050781 C 330.789062 162.425781 330.628906 161.792969 330.503906 161.152344 C 330.375 160.511719 330.28125 159.867188 330.214844 159.21875 C 330.152344 158.566406 330.121094 157.914062 330.121094 157.261719 C 330.121094 156.609375 330.152344 155.957031 330.214844 155.308594 C 330.28125 154.660156 330.375 154.015625 330.503906 153.375 C 330.628906 152.734375 330.789062 152.101562 330.980469 151.476562 C 331.167969 150.851562 331.386719 150.238281 331.636719 149.632812 C 331.886719 149.03125 332.167969 148.441406 332.476562 147.863281 C 332.78125 147.289062 333.117188 146.730469 333.480469 146.1875 C 333.84375 145.644531 334.234375 145.121094 334.648438 144.613281 C 335.0625 144.109375 335.5 143.628906 335.960938 143.164062 C 336.425781 142.703125 336.90625 142.265625 337.414062 141.851562 C 337.917969 141.4375 338.441406 141.050781 338.984375 140.6875 C 339.527344 140.324219 340.085938 139.988281 340.664062 139.679688 C 341.238281 139.371094 341.828125 139.09375 342.433594 138.84375 C 343.035156 138.59375 343.652344 138.375 344.277344 138.183594 C 344.902344 137.996094 345.535156 137.835938 346.175781 137.710938 C 346.816406 137.582031 347.460938 137.484375 348.113281 137.421875 C 348.761719 137.359375 349.414062 137.328125 350.066406 137.324219 C 350.71875 137.328125 351.371094 137.359375 352.023438 137.421875 C 352.671875 137.484375 353.316406 137.582031 353.957031 137.710938 C 354.597656 137.835938 355.230469 137.996094 355.855469 138.183594 C 356.480469 138.375 357.097656 138.59375 357.699219 138.84375 C 358.304688 139.09375 358.894531 139.371094 359.46875 139.679688 C 360.046875 139.988281 360.605469 140.324219 361.148438 140.6875 C 361.691406 141.050781 362.214844 141.4375 362.722656 141.851562 C 363.226562 142.265625 363.710938 142.703125 364.171875 143.164062 C 364.632812 143.628906 365.070312 144.109375 365.484375 144.613281 C 365.898438 145.121094 366.289062 145.644531 366.652344 146.1875 C 367.015625 146.730469 367.351562 147.289062 367.65625 147.863281 C 367.964844 148.441406 368.246094 149.03125 368.496094 149.632812 C 368.746094 150.238281 368.964844 150.851562 369.15625 151.476562 C 369.34375 152.101562 369.503906 152.734375 369.628906 153.375 C 369.757812 154.015625 369.851562 154.660156 369.917969 155.308594 C 369.980469 155.957031 370.011719 156.609375 370.011719 157.261719 Z M 370.011719 157.261719 " fill-opacity="1" fill-rule="nonzero"/><path fill="#000000" d="M 36.902344 259.410156 L 36.902344 173.214844 C 33.566406 175.714844 29.425781 177.199219 24.933594 177.199219 C 20.441406 177.199219 16.296875 175.714844 12.964844 173.210938 L 12.964844 341.675781 L 36.902344 341.675781 Z M 36.902344 259.410156 " fill-opacity="1" fill-rule="evenodd"/><path fill="#000000" d="M 362.035156 341.675781 L 362.035156 173.210938 C 358.703125 175.714844 354.558594 177.199219 350.066406 177.199219 C 345.578125 177.199219 341.433594 175.714844 338.097656 173.210938 L 338.097656 341.675781 Z M 362.035156 341.675781 " fill-opacity="1" fill-rule="evenodd"/><path fill="#000000" d="M 187.5 265.5 C 117.207031 265.5 95.421875 246.113281 36.902344 234.625 L 36.902344 259.410156 C 88.292969 279.417969 137.878906 289.421875 187.5 289.421875 C 237.121094 289.421875 286.707031 279.417969 338.097656 259.410156 L 338.097656 234.625 C 279.578125 246.113281 257.792969 265.5 187.5 265.5 Z M 187.5 265.5 " fill-opacity="1" fill-rule="evenodd"/><path fill="#000000" d="M 161.265625 130.816406 L 148.1875 104.792969 L 114.050781 144.714844 L 168.246094 144.714844 Z M 161.265625 130.816406 " fill-opacity="1" fill-rule="evenodd"/><path fill="#000000" d="M 218.167969 124.269531 L 184.394531 84.777344 L 161.265625 130.816406 L 168.246094 144.714844 L 207.894531 144.714844 Z M 218.167969 124.269531 " fill-opacity="1" fill-rule="evenodd"/><path fill="#000000" d="M 260.953125 144.714844 L 228.738281 103.226562 L 218.167969 124.269531 L 207.894531 144.714844 Z M 260.953125 144.714844 " fill-opacity="1" fill-rule="evenodd"/></svg>