<svg xmlns="http://www.w3.org/2000/svg" xmlns:xlink="http://www.w3.org/1999/xlink" width="500" zoomAndPan="magnify" viewBox="0 0 375 374.999991" height="500" preserveAspectRatio="xMidYMid meet" version="1.0"><path fill="#000000" d="M 81.523438 0 C 59.101562 0 40.761719 18.34375 40.761719 40.761719 C 40.761719 63.179688 59.101562 81.523438 81.523438 81.523438 C 103.941406 81.523438 122.28125 63.179688 122.28125 40.761719 C 122.28125 18.34375 103.941406 0 81.523438 0 Z M 220.109375 0 L 220.109375 16.304688 L 138.585938 16.304688 L 138.585938 32.609375 L 358.695312 32.609375 L 358.695312 244.566406 L 146.738281 244.566406 L 146.738281 260.871094 L 216.03125 260.871094 L 171.195312 350.542969 L 187.5 350.542969 L 228.261719 269.023438 L 269.023438 350.542969 L 285.324219 350.542969 L 240.488281 260.871094 L 366.847656 260.871094 C 371.335938 260.871094 375 257.207031 375 252.71875 L 375 24.457031 C 375 19.964844 371.335938 16.304688 366.847656 16.304688 L 236.414062 16.304688 L 236.414062 0 Z M 81.523438 16.304688 C 95.121094 16.304688 105.976562 27.164062 105.976562 40.761719 C 105.976562 54.359375 95.121094 65.21875 81.523438 65.21875 C 67.925781 65.21875 57.066406 54.359375 57.066406 40.761719 C 57.066406 27.164062 67.925781 16.304688 81.523438 16.304688 Z M 44.835938 89.675781 C 20.15625 89.675781 0 109.832031 0 134.511719 L 0 234.882812 C -0.03125 235.234375 -0.03125 235.554688 0 235.902344 L 0 236.414062 C -0.03125 237.175781 0.0625 237.972656 0.253906 238.707031 C 1.464844 251.03125 11.847656 260.871094 24.457031 260.871094 C 27.324219 260.871094 30.03125 260.265625 32.609375 259.339844 L 32.609375 346.46875 C 32.609375 362.136719 45.472656 375 61.140625 375 C 69.101562 375 76.332031 371.65625 81.523438 366.339844 C 86.710938 371.65625 93.941406 375 101.902344 375 C 117.570312 375 130.433594 362.136719 130.433594 346.46875 L 130.433594 138.585938 L 220.109375 138.585938 C 233.515625 138.585938 244.566406 127.535156 244.566406 114.128906 C 244.566406 100.882812 233.800781 89.960938 220.617188 89.675781 C 220.457031 89.675781 220.269531 89.675781 220.109375 89.675781 L 105.976562 89.675781 C 102.824219 89.640625 99.960938 91.425781 98.589844 94.257812 L 81.523438 128.398438 L 64.453125 94.257812 C 63.082031 91.425781 60.21875 89.640625 57.066406 89.675781 Z M 44.835938 105.976562 L 51.96875 105.976562 L 74.132812 150.304688 C 75.472656 153.171875 78.371094 155.019531 81.523438 155.019531 C 84.675781 155.019531 87.570312 153.171875 88.910156 150.304688 L 111.074219 105.976562 L 220.109375 105.976562 C 220.363281 105.976562 220.617188 105.976562 220.871094 105.976562 C 225.109375 106.359375 228.261719 109.800781 228.261719 114.128906 C 228.261719 118.746094 224.726562 122.28125 220.109375 122.28125 L 122.28125 122.28125 C 117.792969 122.28125 114.128906 125.945312 114.128906 130.433594 L 114.128906 346.46875 C 114.128906 353.3125 108.75 358.695312 101.902344 358.695312 C 95.46875 358.695312 90.277344 353.984375 89.675781 347.742188 L 89.675781 345.703125 C 89.675781 345.449219 89.675781 345.195312 89.675781 344.9375 L 89.675781 260.871094 C 89.769531 258.511719 88.8125 256.253906 87.125 254.660156 C 85.40625 253.035156 83.082031 252.238281 80.757812 252.460938 C 80.40625 252.527344 80.058594 252.621094 79.738281 252.71875 C 75.949219 253.578125 73.273438 256.984375 73.371094 260.871094 L 73.371094 344.9375 C 73.335938 345.289062 73.335938 345.609375 73.371094 345.957031 L 73.371094 347.742188 C 72.765625 353.984375 67.574219 358.695312 61.140625 358.695312 C 54.292969 358.695312 48.914062 353.3125 48.914062 346.46875 L 48.914062 154.890625 C 48.976562 152.375 47.863281 149.988281 45.917969 148.394531 C 44.007812 146.804688 41.429688 146.199219 38.976562 146.738281 C 35.1875 147.597656 32.511719 151.007812 32.609375 154.890625 L 32.609375 235.140625 C 32.609375 235.394531 32.609375 235.648438 32.609375 235.902344 L 32.609375 236.414062 C 32.609375 241.03125 29.074219 244.566406 24.457031 244.566406 C 20.03125 244.566406 16.558594 241.285156 16.304688 236.921875 C 16.304688 236.761719 16.304688 236.570312 16.304688 236.414062 C 16.367188 235.902344 16.367188 235.394531 16.304688 234.882812 L 16.304688 134.511719 C 16.304688 118.652344 28.976562 105.976562 44.835938 105.976562 Z M 44.835938 105.976562 " fill-opacity="1" fill-rule="nonzero"/></svg>